<svg xmlns="http://www.w3.org/2000/svg" viewBox="0 0 500 500"><g id="freepik--background-complete--inject-46"><path d="M78.84,388.43q5,35.7,10,71.4l2.6.08C89.81,435.66,88,410.93,78.84,388.43Z" style="fill:#e0e0e0"></path><path d="M106.68,385.09c-7,7.67-9.82,18.22-11.59,28.46-2.52,14.51-2.74,31.65-2,46.36l3.66.08A201.43,201.43,0,0,1,106.68,385.09Z" style="fill:#e0e0e0"></path><path d="M80.68,430.67c-.8-3.54-1.72-7.13-3.74-10.15-2.73-4.07-7.17-6.64-11.64-8.64s-9.18-3.61-13.22-6.38c4.51,7.39,14.74,9.35,20,16.27,2.59,3.43,3.67,7.75,4.68,11.93,2.22,9.13,3.58,17,5.8,26.15h3A234.44,234.44,0,0,0,80.68,430.67Z" style="fill:#e0e0e0"></path><path d="M99.43,459.91s2.51-28.35,4.37-33.56,19.46-19.59,19.29-18.91S109.9,423.85,108,427.07,103,459.91,103,459.91Z" style="fill:#e0e0e0"></path><polygon points="131.67 44.75 137.11 62.64 154.83 58.45 140.36 71.31 146.63 87.23 133.12 77.09 120.29 88.41 125.39 71.98 112.88 63.75 127.85 63.05 131.67 44.75" style="fill:#e0e0e0"></polygon><polygon points="408.86 81.81 411.57 92.43 422.06 90.44 413.25 97.6 416.5 107.08 408.86 100.79 401.05 107.08 404.46 97.6 397.36 92.45 406.14 92.43 408.86 81.81" style="fill:#e0e0e0"></polygon><polygon points="88.68 96.49 90.22 101.45 96.17 100.52 91.17 103.86 93.02 108.29 88.68 105.35 84.26 108.29 86.19 103.86 82.16 101.46 87.14 101.45 88.68 96.49" style="fill:#e0e0e0"></polygon><polygon points="375.38 107.56 376.49 111.89 380.77 111.08 377.17 114.01 378.5 117.88 375.38 115.31 372.19 117.88 373.58 114.01 370.68 111.9 374.27 111.89 375.38 107.56" style="fill:#fafafa"></polygon><polygon points="244.52 232.67 245.63 237.01 249.92 236.2 246.32 239.12 247.65 243 244.52 240.43 241.33 243 242.72 239.12 239.82 237.01 243.41 237.01 244.52 232.67" style="fill:#e0e0e0"></polygon><path d="M408.84,195.49a11.47,11.47,0,0,1,8.61,3,9.57,9.57,0,0,1,2.84,8.54c-2.22.92-5.36-.35-7.43-1.55s-3.81-2.9-5.78-4.27-4.34-2.42-6.71-2.06A14.34,14.34,0,0,1,408.84,195.49Z" style="fill:#ebebeb"></path><path d="M410.06,296.57a10.17,10.17,0,0,0,7,4.4c2.23.31,4.81,0,6.41,1.55a2.09,2.09,0,0,0,.6.51.55.55,0,0,0,.71-.14.71.71,0,0,0,.06-.41,7,7,0,0,0-2-4.08,16.71,16.71,0,0,0-3.94-3.32,8.81,8.81,0,0,0-4.85-1.51,4.6,4.6,0,0,0-4.13,2.61" style="fill:#ebebeb"></path><path d="M415.23,296.33a2.45,2.45,0,0,0-.47-.13,8.66,8.66,0,0,0-1.33-.2,12.91,12.91,0,0,0-2,0,15.08,15.08,0,0,0-2.41.42,14.44,14.44,0,0,0-2.28.85,12.27,12.27,0,0,0-1.71,1,9.14,9.14,0,0,0-1.05.83c-.23.22-.35.34-.34.36s.55-.43,1.49-1a14.79,14.79,0,0,1,4-1.76,14.55,14.55,0,0,1,4.31-.47C414.54,296.24,415.22,296.38,415.23,296.33Z" style="fill:#e0e0e0"></path><path d="M451.17,208.81l-15.72,16.76,9.43-46.83-14.24-1.17s-5.35,29.64-5.48,31.22-7.84,30.68-7.84,30.68-15.44,39.14-17.7,40.78-9.8,15.89-9.8,15.89l-7.42,6.29-16.57,40L346,354.91,288.29,394l7.79,11.1c12.36-10.37,55-34.34,55.86-35.28l26.68-15.17,27.19-59.35,24.08-53.76,24.84-25.92Z" style="fill:#e0e0e0"></path><path d="M323.07,395l0-.27c0-.21,0-.47,0-.79,0-.68.11-1.67.24-2.89s.33-2.66.62-4.25.68-3.32,1.18-5.12,1.08-3.48,1.65-5,1.15-2.85,1.68-4,1-2,1.29-2.59l.37-.7.12-.25s-.78,1.3-1.85,3.51c-.53,1.1-1.11,2.44-1.7,3.95s-1.16,3.2-1.66,5-.89,3.54-1.18,5.13-.48,3.05-.59,4.26C323.07,393.46,323.07,395,323.07,395Z" style="fill:#ebebeb"></path><path d="M341.38,368.26s-.34.15-.94.47a13.1,13.1,0,0,0-5.2,5.52,12.87,12.87,0,0,0-1.41,5.92v.09l.07-.06a85,85,0,0,0,7.05-6.46q1.82-1.85,3.63-3.95c.6-.69,1.19-1.41,1.79-2.14a5,5,0,0,0,1.21-2.57,2.07,2.07,0,0,0-.7-1.67,3,3,0,0,0-1.7-.61,5.82,5.82,0,0,0-1.77.15,7.46,7.46,0,0,0-.84.26c-.28.09-.56.19-.82.3a16.81,16.81,0,0,0-5.49,3.72,21.75,21.75,0,0,0-3.6,4.8,28.29,28.29,0,0,0-2.09,4.81,47.9,47.9,0,0,0-1.7,7.39c-.26,1.78-.36,2.76-.36,2.76s0-.24.1-.71.18-1.17.3-2a47.64,47.64,0,0,1,1.74-7.38,23.82,23.82,0,0,1,5.68-9.56,16.6,16.6,0,0,1,5.46-3.69,7.1,7.1,0,0,1,.81-.3,8,8,0,0,1,.83-.26,6,6,0,0,1,1.74-.15,2.93,2.93,0,0,1,1.64.6,1.9,1.9,0,0,1,.66,1.57,4.74,4.74,0,0,1-1.19,2.51c-.59.73-1.18,1.45-1.78,2.14-1.21,1.4-2.41,2.72-3.62,3.95a86.53,86.53,0,0,1-7,6.46l.07,0a12.8,12.8,0,0,1,1.38-5.89,13.2,13.2,0,0,1,2.77-3.73,12.76,12.76,0,0,1,2.38-1.79c.29-.18.54-.29.69-.37Z" style="fill:#ebebeb"></path><path d="M352,351.4a1.38,1.38,0,0,0,.11.17c.08.11.21.26.35.47a15.39,15.39,0,0,1,1.09,1.83,14,14,0,0,1-.49,13.51,14.54,14.54,0,0,1-1.22,1.75,5.53,5.53,0,0,1-.38.44l-.12.16s.2-.19.53-.58a13.34,13.34,0,0,0,1.26-1.74,13.87,13.87,0,0,0-.64-15.4C352.21,351.61,352,351.4,352,351.4Z" style="fill:#ebebeb"></path><path d="M362.1,344.77a26.51,26.51,0,0,0-1,2.78,35.61,35.61,0,0,0-1.34,7,36.29,36.29,0,0,0,.08,7.11,28,28,0,0,0,.47,2.91l0-.2c0-.17-.05-.36-.09-.58-.08-.5-.18-1.23-.27-2.14a36.4,36.4,0,0,1-.05-7.09,37.72,37.72,0,0,1,1.3-7c.25-.87.48-1.57.65-2.05.08-.22.14-.4.19-.55A1,1,0,0,0,362.1,344.77Z" style="fill:#ebebeb"></path><path d="M383,301.59s0,.22.07.64c0,.22.07.47.11.78l.07,1.06a25.24,25.24,0,0,1-.58,6.73,50.21,50.21,0,0,1-3.2,9.52c-1.48,3.48-3.39,7.2-5,11.28a41.88,41.88,0,0,0-2.32,7.81,25,25,0,0,0-.28,7.31v.06l.05,0a5,5,0,0,1,4.22.18l0,0a15.26,15.26,0,0,1-2.35,8.14,15,15,0,0,1-1.39,1.89l-.41.46a1.21,1.21,0,0,0-.14.16s.2-.2.57-.6a16.36,16.36,0,0,0,1.41-1.88,15.31,15.31,0,0,0,1.6-3.36,15.08,15.08,0,0,0,.79-4.81v0h0a5.07,5.07,0,0,0-4.29-.2l.06,0a25.11,25.11,0,0,1,.29-7.28,43.79,43.79,0,0,1,2.31-7.8c1.59-4.07,3.49-7.78,5-11.27a50.07,50.07,0,0,0,3.17-9.54,25.19,25.19,0,0,0,.55-6.76c0-.39-.06-.75-.08-1.06s-.08-.56-.11-.77C383,301.81,383,301.59,383,301.59Z" style="fill:#ebebeb"></path><path d="M397.21,311.4l0-.11a1.52,1.52,0,0,0,.08-.35,2.53,2.53,0,0,0-.19-1.35A3.38,3.38,0,0,0,395.7,308a3.82,3.82,0,0,0-2.81-.32,6.24,6.24,0,0,0-3,1.76,18.88,18.88,0,0,0-2.38,3.23,88.79,88.79,0,0,0-4.64,7.92,30.24,30.24,0,0,0-3,8.66c-.08.34-.1.69-.15,1a9,9,0,0,0-.09,1,2.74,2.74,0,0,0,.16,1,1.32,1.32,0,0,0,.64.73,1.71,1.71,0,0,0,1.74-.33,7.15,7.15,0,0,0,1.1-1.26,4.43,4.43,0,0,1,2.27-1.66,2.28,2.28,0,0,1,2,.38,1.89,1.89,0,0,1,.74,1.11,1.85,1.85,0,0,1,0,.47.55.55,0,0,0,0-.12,1.19,1.19,0,0,0,0-.36,1.93,1.93,0,0,0-.73-1.14,2.33,2.33,0,0,0-2.08-.4,4.54,4.54,0,0,0-2.31,1.67,7.08,7.08,0,0,1-1.09,1.25,1.66,1.66,0,0,1-1.66.31,1.28,1.28,0,0,1-.59-.68,3.06,3.06,0,0,1-.14-1,5.72,5.72,0,0,1,.09-1c0-.34.07-.69.14-1a30.62,30.62,0,0,1,3-8.63c1.46-2.9,3.12-5.53,4.62-7.91a18.38,18.38,0,0,1,2.36-3.21,6.15,6.15,0,0,1,3-1.75,3.75,3.75,0,0,1,2.76.29,3.44,3.44,0,0,1,1.42,1.58,2.65,2.65,0,0,1,.21,1.34C397.27,311.25,397.19,311.4,397.21,311.4Z" style="fill:#ebebeb"></path><path d="M407.35,288.38S403.57,290,399,292s-8.38,3.71-8.36,3.74,3.77-1.6,8.4-3.64S407.36,288.41,407.35,288.38Z" style="fill:#ebebeb"></path><path d="M396.93,285.17a.84.84,0,0,0,.1.21,1.32,1.32,0,0,0,.52.44,1.87,1.87,0,0,0,1.07.16,4,4,0,0,0,1.34-.5,50.7,50.7,0,0,0,6.88-4.56,51.22,51.22,0,0,0,6.05-5.62c1.43-1.57,2.21-2.62,2.21-2.62l-.16.18-.44.52c-.38.45-.94,1.09-1.66,1.87a53.42,53.42,0,0,1-6.07,5.58,54.34,54.34,0,0,1-6.85,4.59,4.12,4.12,0,0,1-1.31.5,1.79,1.79,0,0,1-1-.13A1.26,1.26,0,0,1,396.93,285.17Z" style="fill:#ebebeb"></path><path d="M422.25,239.25c-.07.2-.22.66-.55,1.66s-.93,2.65-1.76,4.61a65.25,65.25,0,0,1-9,15.18l.08,0a101.41,101.41,0,0,1,13.61-27.87c.66-1,1.35-1.89,2-2.76h-.09a8.9,8.9,0,0,1,.64,5.23,20.59,20.59,0,0,1-1.54,5c-1.41,3.11-2.94,6-4.4,8.79-2.95,5.52-5.87,10.31-8.42,14.26s-4.76,7-6.29,9.14c-.77,1.06-1.38,1.87-1.79,2.42l-.62.84s.89-1.12,2.44-3.23,3.75-5.19,6.32-9.13,5.49-8.73,8.44-14.25c1.47-2.77,3-5.68,4.42-8.8a21.08,21.08,0,0,0,1.55-5,9.15,9.15,0,0,0-.65-5.3l0-.08-.05.07c-.64.88-1.34,1.81-2,2.77a101.6,101.6,0,0,0-13.61,27.91l-.07.22.15-.18a65.37,65.37,0,0,0,9-15.22c.83-2,1.38-3.55,1.74-4.62S422.25,239.25,422.25,239.25Z" style="fill:#ebebeb"></path><path d="M420.67,229.61l.26-.33.72-1,2.66-3.56,3.93-5.28,1.14-1.53a2.3,2.3,0,0,1,1.53-1.09,1.75,1.75,0,0,1,1.58,1,3.84,3.84,0,0,1,.29,2.05,130.81,130.81,0,0,1-2,14.49c-.37,1.84-.69,3.32-.93,4.34-.11.49-.21.88-.27,1.17a4,4,0,0,0-.09.42s.61-2.24,1.36-5.92a125,125,0,0,0,2.08-14.5,4.13,4.13,0,0,0-.3-2.09,1.87,1.87,0,0,0-1.69-1.09,1.68,1.68,0,0,0-.93.41,3.85,3.85,0,0,0-.67.73l-1.14,1.53-3.91,5.3-2.63,3.57-.71,1Z" style="fill:#ebebeb"></path><path d="M440.59,195.37l-.28-.19a2.9,2.9,0,0,0-.93-.32,4.24,4.24,0,0,0-3.38,1,8,8,0,0,0-1.62,1.89c-.48.75-.91,1.61-1.38,2.5-.94,1.78-2,3.74-3,5.79l-5.5,10.53-1.65,3.2-.45.87-.15.31.17-.3.46-.86c.42-.78,1-1.86,1.69-3.18l5.52-10.52,3-5.8c.47-.89.9-1.74,1.38-2.49a7.67,7.67,0,0,1,1.59-1.88,4.25,4.25,0,0,1,3.32-1A3.08,3.08,0,0,1,440.59,195.37Z" style="fill:#ebebeb"></path><path d="M428.64,196.38l.13-.07.36-.2,1.33-.75,4.34-2.5a13.76,13.76,0,0,1,2.47-1.22,5.48,5.48,0,0,1,2.19-.35,3.84,3.84,0,0,1,1.46.37,4.43,4.43,0,0,1,.48.27,2.08,2.08,0,0,0-.46-.31,3.78,3.78,0,0,0-1.47-.4,5.4,5.4,0,0,0-2.23.32,15,15,0,0,0-2.49,1.22l-4.33,2.54-1.31.78-.35.21Z" style="fill:#ebebeb"></path><path d="M430.92,182.56a11.68,11.68,0,0,0,1.62,1.12,15.29,15.29,0,0,0,1.93.92,15,15,0,0,0,5.13,1,13.65,13.65,0,0,0,2.14-.13,12,12,0,0,0,1.92-.41l-.13,0-.39.08c-.33.08-.81.16-1.41.24a15.29,15.29,0,0,1-2.13.1,15.09,15.09,0,0,1-5.09-1,14.76,14.76,0,0,1-1.93-.9,14.29,14.29,0,0,1-1.22-.76l-.32-.22Z" style="fill:#ebebeb"></path><path d="M440,231.22s0-.05,0-.15l-.07-.4c-.06-.34-.13-.85-.19-1.47a16,16,0,0,1,.35-4.87,23.29,23.29,0,0,1,1.68-4.6c.27-.56.5-1,.67-1.33l.18-.36.06-.12s0,0-.08.11-.12.23-.2.36c-.17.3-.41.75-.7,1.31a21.44,21.44,0,0,0-1.71,4.61,14.9,14.9,0,0,0-.32,4.9A13.6,13.6,0,0,0,440,231.22Z" style="fill:#ebebeb"></path><path d="M450,210.11v.14q0,.18,0,.39c0,.34,0,.83.06,1.44a15.34,15.34,0,0,1-.69,4.67c-.56,1.77-1.13,3.35-1.43,4.53-.15.59-.27,1.07-.34,1.41,0,.14-.05.26-.07.38s0,.14,0,.14a.93.93,0,0,1,0-.13l.09-.38c.08-.33.21-.81.37-1.4.32-1.17.9-2.74,1.46-4.52a15.29,15.29,0,0,0,.5-6.67Z" style="fill:#ebebeb"></path><path d="M410.68,301.49a1.77,1.77,0,0,0-.1-.92,4.76,4.76,0,0,0-1.13-1.93,4,4,0,0,0-1.93-1.14,1.84,1.84,0,0,0-.92,0s.35,0,.87.22a4.28,4.28,0,0,1,1.79,1.14,5.38,5.38,0,0,1,1.14,1.8C410.6,301.15,410.64,301.5,410.68,301.49Z" style="fill:#e0e0e0"></path><path d="M412.69,199c0,.06,1.09.63,2.6,1.95a22.67,22.67,0,0,1,4.76,6.17,25,25,0,0,1,1.72,4c.24.62.38,1.23.55,1.8s.27,1.11.34,1.6a18.8,18.8,0,0,1,.28,2.36,7.87,7.87,0,0,0,0,.88,5.14,5.14,0,0,0,.06-.88,15.09,15.09,0,0,0-.19-2.39c-.06-.5-.2-1-.31-1.62s-.3-1.2-.54-1.83a23.29,23.29,0,0,0-1.72-4,21.14,21.14,0,0,0-4.87-6.19,12.17,12.17,0,0,0-1.08-.83,6.5,6.5,0,0,0-.87-.56A4.64,4.64,0,0,0,412.69,199Z" style="fill:#e0e0e0"></path><path d="M402.75,302a13.34,13.34,0,0,1,.27,7.19c-1.93,8.58-7.48,23.68-12.16,28.75l-.14.15a17.12,17.12,0,0,1-6.52,4.41Z" style="fill:#f5f5f5"></path><path d="M410,219.72l2.53.64a6.45,6.45,0,0,0-2.79-3.32,11.23,11.23,0,0,1,3,1.18,9.91,9.91,0,0,0-7.21-5.88,18.63,18.63,0,0,0-9.55.74,4.73,4.73,0,0,1,2.08-1.5,6.43,6.43,0,0,0-5.42.69,19,19,0,0,0-4.2,3.66l-1.55-.69s-7.9-1.83-14.31-.81c-1.33-1.83-3.66-2.87-5.91-3.46a9.43,9.43,0,0,0-2.11-.37c-2.28-.08-4.36,1.17-6.29,2.38a8.63,8.63,0,0,0-2.63,2.16,5.94,5.94,0,0,1,1.58,1.46,4.86,4.86,0,0,1-1.7,0l.7,1.49-1.44-.4c-.29.75.28,1.54.37,2.34a4.28,4.28,0,0,1-.09,1.13c-.43,2.78-.17,5.87,1.5,8.06-.06.16-.12.32-.16.47-.8,2.62-2.51,11.93-1.17,14.14.8,1.33,2,4.3,3.82,6.56l-3.78,9.41s-10.72,25.71-11.63,32a87.8,87.8,0,0,0-.34,18.24c.16,1.82.58,4.13,1.05,6.59a47.5,47.5,0,0,0,9.79,20.78h0l12.3,3.57,16-38.64,7.42-6.29s7.54-14.24,9.8-15.88c.52-.38,1.73-2.72,3.28-6.09,1.25-7,2.14-13.37,1.62-15.08a14.56,14.56,0,0,0-3.53-5.11,1.45,1.45,0,0,0,.42-.47c.38-.58.74-1.17,1.07-1.78a9.34,9.34,0,0,1-3.12,0l1.89-1.91a5.83,5.83,0,0,1-4.54-3.84,5.53,5.53,0,0,0,4,.27,10.67,10.67,0,0,1-3.07-2.22,2.28,2.28,0,0,0,2.44.4,6.54,6.54,0,0,1-3.37-4.52c0-1,0-1.81,0-2.43h0c.67.8,1.07,2,2.08,2.21l-.36-2.54,3.37,2.07a11.79,11.79,0,0,0-1.06-3.77,5.81,5.81,0,0,1,3.51,2.91,9.2,9.2,0,0,0-.65-6.15l2.27,1.5-1-2.76a4.48,4.48,0,0,0,2.66.73,22.59,22.59,0,0,1-1.85-3.38,7.08,7.08,0,0,0,4.89.57,14.08,14.08,0,0,1-1.89-2,3.87,3.87,0,0,0,3.46.63q-1.78-2-3.58-3.92a35.53,35.53,0,0,1,4.59,1.69A8.33,8.33,0,0,0,410,219.72Zm-13.28,17.63h0Z" style="fill:#f5f5f5"></path><path d="M372,214.47a6.85,6.85,0,0,0-6.67,0,11.15,11.15,0,0,0-4.62,5.07,33,33,0,0,0-2.21,6.6c2.3-1.91,4-4.46,5.93-6.72s4.39-4.35,7.35-4.82" style="fill:#ebebeb"></path><path d="M384.32,342.15c5-1.63,8.59-6,10.83-10.74a141.77,141.77,0,0,0,5.72-14.53c.84-2.44,1.48-4.93,2.09-7.44a15.78,15.78,0,0,0-.19-7.87" style="fill:#f5f5f5"></path><path d="M402.77,301.57s0,0,0,.12.05.21.09.35c.06.3.16.75.25,1.34a16.62,16.62,0,0,1,0,5c-.18,1-.5,2.16-.81,3.37s-.67,2.49-1.1,3.83c-.89,2.66-1.93,5.57-3.08,8.6s-2.37,5.87-3.65,8.36a23.62,23.62,0,0,1-4.38,6,16.71,16.71,0,0,1-4.05,2.91l-.72.33c-.2.1-.39.16-.53.22l-.33.14-.11,0s0,0,.12,0l.34-.11.55-.19.72-.32a15.53,15.53,0,0,0,4.14-2.87,23.24,23.24,0,0,0,4.47-6,87.72,87.72,0,0,0,3.68-8.39c1.16-3,2.19-5.94,3.07-8.62.42-1.34.77-2.63,1.08-3.84s.61-2.34.78-3.4a15.78,15.78,0,0,0,0-5c-.1-.59-.22-1-.3-1.34l-.11-.34A.82.82,0,0,1,402.77,301.57Z" style="fill:#e0e0e0"></path><path d="M408.49,281.83l4.27-2a3,3,0,0,1-1.41-.86,1.57,1.57,0,0,1-.3-1.57,2.18,2.18,0,0,1,.76-.81A9.13,9.13,0,0,1,415,275.2l1.59.18a3.17,3.17,0,0,1,1.85.82,2.34,2.34,0,0,1,.16,3.25,1.61,1.61,0,0,1-.83.52,7.75,7.75,0,0,1-2.43.08,3.31,3.31,0,0,1,2.26,1,1.29,1.29,0,0,1,.22,1.21c-.23.61-.82.72-1.37.8-.87.12-1.75.21-2.63.27a2.71,2.71,0,0,1,1.36.81,1.48,1.48,0,0,1,.28,1.49,2.06,2.06,0,0,1-1,.92,8.05,8.05,0,0,1-3,.87,2.68,2.68,0,0,1-2-.47,1.69,1.69,0,0,1,.61-2.75,3.77,3.77,0,0,1-2.08-.73,1,1,0,0,1-.37-.42C407.35,282.52,408,282.07,408.49,281.83Z" style="fill:#ebebeb"></path><path d="M408.49,281.83l4.27-2a3,3,0,0,1-1.41-.86,1.57,1.57,0,0,1-.3-1.57,2.18,2.18,0,0,1,.76-.81A9.13,9.13,0,0,1,415,275.2l1.59.18a3.17,3.17,0,0,1,1.85.82,2.34,2.34,0,0,1,.16,3.25,1.61,1.61,0,0,1-.83.52,7.75,7.75,0,0,1-2.43.08,3.31,3.31,0,0,1,2.26,1,1.29,1.29,0,0,1,.22,1.21c-.23.61-.82.72-1.37.8-.87.12-1.75.21-2.63.27a2.71,2.71,0,0,1,1.36.81,1.48,1.48,0,0,1,.28,1.49,2.06,2.06,0,0,1-1,.92,8.05,8.05,0,0,1-3,.87,2.68,2.68,0,0,1-2-.47,1.69,1.69,0,0,1,.61-2.75,3.77,3.77,0,0,1-2.08-.73,1,1,0,0,1-.37-.42C407.35,282.52,408,282.07,408.49,281.83Z" style="fill:#ebebeb"></path><path d="M408.49,281.83a2,2,0,0,0-.28.12,1.62,1.62,0,0,0-.66.59.65.65,0,0,0,0,.66,1.89,1.89,0,0,0,.6.51,4,4,0,0,0,1.83.57l0-.15a1.78,1.78,0,0,0-1.07,2.24,1.41,1.41,0,0,0,.41.65,1.9,1.9,0,0,0,.71.39,4.09,4.09,0,0,0,1.64.09,7.43,7.43,0,0,0,3.37-1.22,1.45,1.45,0,0,0,.56-.84,1.62,1.62,0,0,0-.14-1,2.55,2.55,0,0,0-1.65-1.21l0,.25,1.65-.17a8.76,8.76,0,0,0,1.71-.26,1.19,1.19,0,0,0,.71-.63,1.3,1.3,0,0,0,0-.95,2,2,0,0,0-1.36-1.25,8,8,0,0,0-1.23-.28l0,.27a6.32,6.32,0,0,0,2.89-.26,2.19,2.19,0,0,0,.92-1.12,2.84,2.84,0,0,0,.16-.7,2.64,2.64,0,0,0-.7-1.93,3,3,0,0,0-1.12-.72,4.75,4.75,0,0,0-1.26-.24l-1.2-.14h0a9.14,9.14,0,0,0-2.16.83,7.85,7.85,0,0,0-.92.57,2.65,2.65,0,0,0-.77.72,1.33,1.33,0,0,0-.21,1,1.9,1.9,0,0,0,.41.87,3.27,3.27,0,0,0,1.45.88v-.15l-3.14,1.48-.82.4c-.19.09-.29.14-.28.15l.29-.11.85-.37,3.16-1.4.18-.08-.19-.07a3,3,0,0,1-1.36-.85,1.38,1.38,0,0,1-.18-1.64,2.59,2.59,0,0,1,.73-.66,8.14,8.14,0,0,1,.91-.55,8.61,8.61,0,0,1,2.1-.79h0l1.21.14a4.74,4.74,0,0,1,1.19.24,2.38,2.38,0,0,1,1.6,1.76,2.35,2.35,0,0,1,.06.64,2.27,2.27,0,0,1-.16.62,2,2,0,0,1-.8,1,1.72,1.72,0,0,1-.63.18l-.69.08a11.59,11.59,0,0,1-1.43-.05l0,.27a6.63,6.63,0,0,1,1.19.26,1.83,1.83,0,0,1,1.2,1.08,1,1,0,0,1-.6,1.25,8.22,8.22,0,0,1-1.65.25l-1.63.17-.67.07.64.18a2.25,2.25,0,0,1,1.49,1.08,1.2,1.2,0,0,1-.34,1.57,7.29,7.29,0,0,1-3.24,1.18,3.68,3.68,0,0,1-1.56-.07,1.4,1.4,0,0,1-1-.9,1.63,1.63,0,0,1,.94-2l.49-.13-.5,0a3.81,3.81,0,0,1-1.78-.51,1.82,1.82,0,0,1-.57-.47.52.52,0,0,1,0-.56,1.5,1.5,0,0,1,.6-.59Z" style="fill:#e0e0e0"></path><path d="M412.9,280.14a6.45,6.45,0,0,0,1.49.05,7.32,7.32,0,0,0,1.49,0,3,3,0,0,0-1.48-.27A3.13,3.13,0,0,0,412.9,280.14Z" style="fill:#e0e0e0"></path><path d="M409.54,284a14.73,14.73,0,0,0,2.11-.25,14.15,14.15,0,0,0,2.11-.31,6.44,6.44,0,0,0-2.14,0A6.28,6.28,0,0,0,409.54,284Z" style="fill:#e0e0e0"></path><path d="M388.4,215.77l-.18-.05-.54-.12-2-.51a23,23,0,0,0-3.27-.75,33.64,33.64,0,0,0-4.43-.19c-1.65,0-3.45.11-5.37.28a10.28,10.28,0,0,0-2.92.74,12.45,12.45,0,0,0-2.79,1.56,14.39,14.39,0,0,0-2.34,2.4c-.72.88-1.41,1.82-2.16,2.72-1.46,1.84-3.41,3.38-4.85,5.48a9.72,9.72,0,0,0-1.84,4.38h0c-.34,2.2-.66,4.34-.92,6.41a29.26,29.26,0,0,0-.17,3.06,6.29,6.29,0,0,0,.06,1.5,4.29,4.29,0,0,0,.53,1.37l2.52,4.74a10.14,10.14,0,0,0,1.39,2,13.51,13.51,0,0,0,1.65,1.51,21,21,0,0,0,5.7,3.44,9.91,9.91,0,0,0,1.74.46,4.26,4.26,0,0,0,.47.06h.15l-.15,0c-.1,0-.26,0-.46-.09a10.46,10.46,0,0,1-1.72-.5,22,22,0,0,1-5.62-3.49,13.27,13.27,0,0,1-1.62-1.5,10,10,0,0,1-1.34-2l-2.5-4.75a4.15,4.15,0,0,1-.51-1.3,5.81,5.81,0,0,1,0-1.45,28.59,28.59,0,0,1,.17-3c.27-2.06.59-4.2.93-6.4h0a9.57,9.57,0,0,1,1.8-4.25c1.41-2,3.35-3.6,4.83-5.46.75-.92,1.44-1.85,2.16-2.73a13.94,13.94,0,0,1,2.29-2.37,12.5,12.5,0,0,1,2.73-1.53,9.92,9.92,0,0,1,2.85-.74c1.92-.18,3.71-.27,5.35-.31a35.61,35.61,0,0,1,4.41.15,23,23,0,0,1,3.26.7c.89.21,1.59.37,2.06.46l.54.1Z" style="fill:#e0e0e0"></path><path d="M344.55,316.78a47,47,0,0,0,9.56,20.72h0m48.28-60s3.42-14.21,2.13-18.41A14.5,14.5,0,0,0,401,254a1.47,1.47,0,0,0,.42-.47c.38-.57.74-1.17,1.07-1.78a9.08,9.08,0,0,1-3.12,0l1.89-1.91a5.86,5.86,0,0,1-4.54-3.85,5.48,5.48,0,0,0,4,.27,10.63,10.63,0,0,1-3.07-2.21,2.26,2.26,0,0,0,2.44.39,6.52,6.52,0,0,1-3.37-4.51c0-1,0-1.81,0-2.43h0c.67.81,1.07,2,2.08,2.22l-.36-2.54,3.37,2.07a11.84,11.84,0,0,0-1.06-3.78,5.82,5.82,0,0,1,3.51,2.92,9.19,9.19,0,0,0-.65-6.15l2.27,1.49-1-2.75a4.48,4.48,0,0,0,2.66.72,23,23,0,0,1-1.85-3.37,7.07,7.07,0,0,0,4.89.56,13.55,13.55,0,0,1-1.89-2,3.87,3.87,0,0,0,3.46.64l-3.58-3.93a37.08,37.08,0,0,1,4.59,1.69,8.31,8.31,0,0,0-3.12-5.45l2.53.64a6.51,6.51,0,0,0-2.79-3.33,11.57,11.57,0,0,1,3,1.18,9.89,9.89,0,0,0-7.21-5.87,18.52,18.52,0,0,0-9.55.74,4.75,4.75,0,0,1,2.08-1.51,6.51,6.51,0,0,0-5.42.69,19,19,0,0,0-4.2,3.67l-1.55-.7s-7.9-1.83-14.31-.8c-1.33-1.84-3.66-2.87-5.91-3.47a10,10,0,0,0-2.11-.37c-2.28-.07-4.36,1.17-6.29,2.38a8.52,8.52,0,0,0-2.63,2.17,5.78,5.78,0,0,1,1.58,1.46,4.63,4.63,0,0,1-1.7,0c.23.5.46,1,.7,1.5l-1.44-.41c-.29.75.28,1.54.37,2.34a4.39,4.39,0,0,1-.09,1.14c-.43,2.77-.17,5.86,1.5,8.06-.06.16-.12.31-.16.46-.8,2.62-2.51,11.94-1.17,14.15.8,1.33,2,4.29,3.82,6.55l-3.78,9.42m41.45-22.41h0Z" style="fill:none"></path><path d="M396.69,237.49c-.06,0-.12,0-.13,0l.25,0h0l-.18.07s0-.05.08-.06.07,0,.07-.07l-.17.07h0l.26.05v0S396.74,237.47,396.69,237.49Z" style="fill:#263238"></path><path d="M402.39,277.5s0-.13.11-.4l.28-1.2c.24-1.06.59-2.64,1-4.72a71.21,71.21,0,0,0,1.06-7.75c0-.38,0-.78.05-1.18V261a7.63,7.63,0,0,0-.49-2.54,16.29,16.29,0,0,0-3.32-4.57l0,.12a3.35,3.35,0,0,0,.79-1.07l.73-1.21.09-.15-.17,0a9.18,9.18,0,0,1-3.1,0l.05.15,1.89-1.91.12-.12-.17,0A5.78,5.78,0,0,1,396.8,246l-.13.12a5.65,5.65,0,0,0,4.09.28l.24-.08-.23-.11a10.59,10.59,0,0,1-3-2.19l-.15.14a2.36,2.36,0,0,0,2.55.42l.2-.1-.2-.09a6.46,6.46,0,0,1-3.3-4.44v0c0-.74,0-1.59,0-2.44v0h0l-.2,0c.3.36.54.8.85,1.24a2.14,2.14,0,0,0,1.3,1l.16,0,0-.16c-.11-.77-.24-1.65-.37-2.54l-.17.12,3.37,2.07.2.12,0-.24a12.15,12.15,0,0,0-1.07-3.81l-.14.17a5.67,5.67,0,0,1,3.43,2.85l.15.29.08-.32a9.39,9.39,0,0,0-.65-6.23l-.19.16,2.27,1.5.32.21-.13-.36-1-2.76-.19.15a4.6,4.6,0,0,0,2.74.75h.22l-.12-.19a22.72,22.72,0,0,1-1.85-3.36l-.17.17a7.22,7.22,0,0,0,5,.58l.25-.06-.19-.17a13,13,0,0,1-1.88-1.95l-.18.18a4,4,0,0,0,3.58.66l.2-.06-.14-.15c-1.12-1.24-2.35-2.58-3.58-3.93l-.13.22a34.84,34.84,0,0,1,4.56,1.69l.22.09,0-.23a8.51,8.51,0,0,0-3.16-5.55l-.12.24,2.53.64.25.06-.09-.24a6.76,6.76,0,0,0-2.85-3.39l-.1.24a11,11,0,0,1,3,1.17l.32.18-.13-.34a8.71,8.71,0,0,0-3-3.94,11.24,11.24,0,0,0-4.45-2.05,18.94,18.94,0,0,0-9.49.77l.14.21a4.56,4.56,0,0,1,2-1.46l.33-.12-.33-.13a5.51,5.51,0,0,0-2.87-.25,8,8,0,0,0-2.69,1,19.42,19.42,0,0,0-4.19,3.67l.15,0-1.56-.69h0a52.73,52.73,0,0,0-7.27-1,32.78,32.78,0,0,0-7.09.22l.12.05a9.09,9.09,0,0,0-4.17-2.93,18.24,18.24,0,0,0-2.39-.72,6.81,6.81,0,0,0-2.46-.19,11.3,11.3,0,0,0-4.45,1.74c-.67.41-1.33.81-2,1.24a6.66,6.66,0,0,0-1.69,1.57l-.06.1.09.06a5.76,5.76,0,0,1,1.55,1.43l.07-.17a4.4,4.4,0,0,1-1.66,0l-.2,0,.09.19c.24.53.47,1,.69,1.49l.12-.14-1.43-.4-.09,0,0,.09a2.36,2.36,0,0,0,.17,1.62,4.24,4.24,0,0,1,.19.74,2.7,2.7,0,0,1,0,.75,15.79,15.79,0,0,0-.23,3,9.38,9.38,0,0,0,1.7,5.46v-.09a24.21,24.21,0,0,0-.85,3.35c-.21,1.1-.39,2.18-.55,3.23a32.79,32.79,0,0,0-.39,6,7.78,7.78,0,0,0,.2,1.38,4.45,4.45,0,0,0,.56,1.23l1.15,2.26a22.66,22.66,0,0,0,2.41,3.81v-.06l-2.78,7-.72,1.81c-.16.41-.23.63-.23.63l.26-.62c.17-.41.41-1,.74-1.8l2.83-7v0l0,0a22.73,22.73,0,0,1-2.38-3.8l-1.15-2.26a4.44,4.44,0,0,1-.53-1.2,6.66,6.66,0,0,1-.19-1.36,31.76,31.76,0,0,1,.4-6c.16-1,.34-2.12.56-3.21a23.8,23.8,0,0,1,.85-3.32v-.05l0,0a9.13,9.13,0,0,1-1.66-5.35,14.82,14.82,0,0,1,.24-3,3.05,3.05,0,0,0,0-.8,4,4,0,0,0-.19-.78,2.24,2.24,0,0,1-.17-1.49l-.13.06,1.44.41.21.06-.09-.2c-.22-.49-.45-1-.69-1.5l-.12.15a4.77,4.77,0,0,0,1.73,0l.18,0-.11-.14a6,6,0,0,0-1.6-1.48l0,.15a12.21,12.21,0,0,1,3.59-2.75,11.37,11.37,0,0,1,4.36-1.71,6.92,6.92,0,0,1,2.39.19,18.29,18.29,0,0,1,2.36.72,8.85,8.85,0,0,1,4.05,2.85l0,.06.08,0a32.24,32.24,0,0,1,7-.2,49.13,49.13,0,0,1,7.23,1h0l1.55.69.08,0,.07-.06a19.33,19.33,0,0,1,4.13-3.63,7.73,7.73,0,0,1,2.6-.94,5.23,5.23,0,0,1,2.74.25v-.25a4.83,4.83,0,0,0-2.13,1.55l-.26.32.4-.12a18.68,18.68,0,0,1,9.36-.76,11,11,0,0,1,4.34,2,8.43,8.43,0,0,1,2.89,3.82l.2-.16a11.75,11.75,0,0,0-3-1.2l-.86-.2.76.45a6.45,6.45,0,0,1,2.36,2.42,6.84,6.84,0,0,1,.38.84l.16-.18-2.53-.64-.62-.16.5.39a8.23,8.23,0,0,1,3.07,5.37l.18-.14a37.54,37.54,0,0,0-4.6-1.7l-.45-.13.32.35,3.58,3.92.05-.21a3.77,3.77,0,0,1-3.34-.61l-.86-.68.68.86a14,14,0,0,0,1.91,2l.05-.22a7,7,0,0,1-4.81-.56l-.32-.17.15.34a22.24,22.24,0,0,0,1.87,3.39l.1-.2a4.33,4.33,0,0,1-2.59-.7l-.33-.21.14.36,1,2.76.19-.15-2.27-1.5-.38-.25.2.41a9.1,9.1,0,0,1,.64,6.07l.23,0a6,6,0,0,0-3.58-3l-.26-.08.11.24a11.71,11.71,0,0,1,1.05,3.74l.18-.12-3.37-2.06-.21-.13,0,.25c.12.88.25,1.76.36,2.54l.14-.13a2,2,0,0,1-1.17-.93c-.29-.42-.54-.87-.86-1.25l-.13-.17-.06.21h0v0c0,.84,0,1.68,0,2.42h0a6.68,6.68,0,0,0,3.43,4.58v-.19a2.15,2.15,0,0,1-2.32-.37l-.14.15a10.7,10.7,0,0,0,3.1,2.23v-.18a5.48,5.48,0,0,1-3.95-.26l-.2-.1.07.21a6,6,0,0,0,4.61,3.91l-.05-.16-1.88,1.92-.12.12.16,0a9.2,9.2,0,0,0,3.15,0l-.08-.12c-.25.41-.49.82-.72,1.21a3.68,3.68,0,0,1-.74,1l-.08.05.07.07a16.19,16.19,0,0,1,3.3,4.51,7.55,7.55,0,0,1,.49,2.49c0,.42,0,.82,0,1.22s0,.79-.05,1.18a72.26,72.26,0,0,1-1,7.73c-.37,2.08-.71,3.67-.93,4.73-.12.53-.2.93-.26,1.21Z" style="fill:#e0e0e0"></path><path d="M347,324.91s0-.07-.05-.2l-.2-.55c-.16-.49-.45-1.2-.75-2.13A59.11,59.11,0,0,1,344,314a74.82,74.82,0,0,1-1-12.27,67.69,67.69,0,0,1,.36-7.26c.06-.63.15-1.26.23-1.89s.21-1.27.33-1.91a23.91,23.91,0,0,1,1.11-3.78c1.8-5.05,3.46-9.88,5.14-14.21s3.25-8.21,4.59-11.46,2.41-5.86,3.17-7.69l.84-2.1.21-.55a1.23,1.23,0,0,0,.07-.19.6.6,0,0,0-.09.18l-.24.54-.89,2.08-3.25,7.66c-1.36,3.24-3,7.11-4.64,11.44s-3.36,9.16-5.16,14.21a23.8,23.8,0,0,0-1.12,3.82q-.18,1-.33,1.92c-.08.64-.17,1.27-.23,1.9a71,71,0,0,0-.35,7.29,74.57,74.57,0,0,0,1.05,12.3,56.3,56.3,0,0,0,2,8.07c.32.93.62,1.64.8,2.12.09.23.17.41.22.55Z" style="fill:#e0e0e0"></path><path d="M396.69,237.49Z" style="fill:none"></path><path d="M396.69,237.5s0-.08,0-.09,0,0,.06,0,0,0,0,0h0l-.24.09h0l0-.1s.08-.07.1-.05a.08.08,0,0,1,0,.08s0,.05,0,.07.09,0,.1-.06l0-.1h0l-.24.1h0v0l0,0a.11.11,0,0,0,.07,0S396.68,237.53,396.69,237.5Z" style="fill:#263238"></path><path d="M358.14,234.43a4.66,4.66,0,0,0-.73-4.67,12.43,12.43,0,0,1,.74,2.28A11.83,11.83,0,0,1,358.14,234.43Z" style="fill:#e0e0e0"></path><path d="M358.21,231.77c-.45,0-.73.45-1,.82a2.69,2.69,0,0,0,0,3l.77-1.05a1.32,1.32,0,0,0,.2-.32,1.42,1.42,0,0,0,0-.36,4.46,4.46,0,0,0-.06-2.09" style="fill:#e0e0e0"></path><path d="M364,231.55a3.29,3.29,0,0,1,.87,2.94,28.27,28.27,0,0,0-.45,3.16,18.89,18.89,0,0,0,.38,2.58,4,4,0,0,1-.29,2.55,2.94,2.94,0,0,1-2.38,1.38,4.79,4.79,0,0,1-2.72-.73.88.88,0,0,1-.41-.4.66.66,0,0,1,.41-.73,5.5,5.5,0,0,1,.88-.25,2.55,2.55,0,0,0,1.53-2,14.94,14.94,0,0,0,.13-2.59,10.48,10.48,0,0,1,2.08-6" style="fill:#ebebeb"></path><path d="M363.63,231a2.54,2.54,0,0,0-2.94.57c-1.19,1.26-3.49,3.79-3.71,4.71a4.79,4.79,0,0,0,.12,3.35c.48.72.52,2.54,2.06,3.45l1.54.91s2.56-.14,3-1.47a9.34,9.34,0,0,0,0-3.29,4,4,0,0,1,.21-1.93,17.21,17.21,0,0,0,.78-2.44c.25-1.24.6-3.07-.95-3.84Z" style="fill:#e0e0e0"></path><path d="M360.67,243.34s-.05-.26-.06-.68a2.47,2.47,0,0,1,1.64-2.46c.38-.15.65-.16.64-.21s-.27-.08-.7,0a2.49,2.49,0,0,0-1.39,1,2.52,2.52,0,0,0-.38,1.67C360.49,243.12,360.65,243.36,360.67,243.34Z" style="fill:#f5f5f5"></path><path d="M357.32,239.78s.19.13.45.35a3.56,3.56,0,0,1,.87,1c.53.91.72,1.78.81,1.75s0-.23-.06-.58a4.48,4.48,0,0,0-.52-1.31,2.94,2.94,0,0,0-1-1C357.56,239.78,357.33,239.75,357.32,239.78Z" style="fill:#f5f5f5"></path><path d="M359.93,244.15a1,1,0,0,0-.12.41,5.13,5.13,0,0,0-.07,1.14,5.93,5.93,0,0,0,4.49,5.54,4.71,4.71,0,0,0,1.13.16c.28,0,.42,0,.42,0s-.59,0-1.5-.31a6.3,6.3,0,0,1-3-2,6.22,6.22,0,0,1-1.34-3.36C359.84,244.75,360,244.16,359.93,244.15Z" style="fill:#e0e0e0"></path><path d="M372.18,229.88s.35-.22.94-.47a4.64,4.64,0,0,1,2.44-.33,4.52,4.52,0,0,1,2.25,1c.5.41.73.75.77.72a2.1,2.1,0,0,0-.64-.86,4.28,4.28,0,0,0-4.9-.7A2.33,2.33,0,0,0,372.18,229.88Z" style="fill:#e0e0e0"></path><path d="M401.81,228.15a6.05,6.05,0,0,0-2.53-.36,6.4,6.4,0,0,0-2.53.42c0,.08,1.14-.15,2.53-.16S401.79,228.22,401.81,228.15Z" style="fill:#e0e0e0"></path><path d="M402,229.54a4.13,4.13,0,0,0-1.86-.51,4,4,0,0,0-1.93.14c0,.07.86,0,1.9.13S402,229.62,402,229.54Z" style="fill:#e0e0e0"></path><path d="M392.84,247.34c0-.07-.49-.3-1-.74s-.86-.9-.93-.86a1.9,1.9,0,0,0,.76,1.06A1.79,1.79,0,0,0,392.84,247.34Z" style="fill:#e0e0e0"></path><path d="M392.14,248.52c0-.07-.48-.33-1-.82s-.73-1-.8-1a2.27,2.27,0,0,0,1.76,1.8Z" style="fill:#e0e0e0"></path><path d="M392,248.78a7.68,7.68,0,0,0-1.23-.38,7.18,7.18,0,0,0-1.22-.41,2.2,2.2,0,0,0,1.13.67A2.13,2.13,0,0,0,392,248.78Z" style="fill:#e0e0e0"></path><circle cx="374.71" cy="233.8" r="2.61" style="fill:#fafafa"></circle><path d="M372.53,233.62a2.19,2.19,0,1,0,2.36-2A2.19,2.19,0,0,0,372.53,233.62Z" style="fill:#e0e0e0"></path><path d="M372.12,233.58s0-.23.18-.61a2.57,2.57,0,0,1,1.06-1.28,2.5,2.5,0,0,1,3.81,2.31,2.49,2.49,0,0,1-4.13,1.65,2.56,2.56,0,0,1-.84-1.44c-.08-.4-.05-.63-.08-.63s0,.06,0,.17a1.57,1.57,0,0,0,0,.48,2.48,2.48,0,0,0,.81,1.56,2.67,2.67,0,0,0,2.51.63,2.72,2.72,0,0,0,.42-5.1,2.68,2.68,0,0,0-2.58.21,2.63,2.63,0,0,0-1.06,1.41,2.32,2.32,0,0,0-.09.47C372.11,233.52,372.11,233.58,372.12,233.58Z" style="fill:#e0e0e0"></path><path d="M375.7,235.17s.16,0,.34-.13a1.46,1.46,0,0,0,.48-.73,1.51,1.51,0,0,0,0-.87c-.08-.21-.17-.31-.2-.3a4.36,4.36,0,0,1-.06,1.1C376.1,234.82,375.66,235.11,375.7,235.17Z" style="fill:#fafafa"></path><path d="M361.25,230.23a3.69,3.69,0,0,1,.63-.26,4,4,0,0,1,1.62,0,6.1,6.1,0,0,1,2.11,1s-.13-.26-.48-.53a3.69,3.69,0,0,0-1.58-.71,3.34,3.34,0,0,0-1.73.09C361.38,230,361.22,230.22,361.25,230.23Z" style="fill:#e0e0e0"></path><path d="M393,215.61c-.07,0-.51.91-1.24,1.95s-1.47,1.77-1.42,1.83a5.47,5.47,0,0,0,1.64-1.68A5.56,5.56,0,0,0,393,215.61Z" style="fill:#e0e0e0"></path><path d="M392.12,215.22c-.07,0-.38.76-.89,1.66s-1.05,1.56-1,1.61a5.72,5.72,0,0,0,1.88-3.27Z" style="fill:#e0e0e0"></path><path d="M359,274.28a3.68,3.68,0,0,0,2-2.63c-.07,0-.35.67-.91,1.39S358.94,274.22,359,274.28Z" style="fill:#e0e0e0"></path><path d="M357.94,272.91a5.14,5.14,0,0,0,2.36-2.22,10.59,10.59,0,0,0-1.18,1.11A10.14,10.14,0,0,0,357.94,272.91Z" style="fill:#e0e0e0"></path><path d="M357.46,271.19a1.66,1.66,0,0,0,1.41-.37,1.68,1.68,0,0,0,.81-1.2c-.07,0-.34.55-1,1A7.33,7.33,0,0,1,357.46,271.19Z" style="fill:#e0e0e0"></path><path d="M355.91,296.65c0,.05.55-.33,1-.94a2.68,2.68,0,0,0,.67-1.22,5.36,5.36,0,0,0-.88,1.05A5.19,5.19,0,0,0,355.91,296.65Z" style="fill:#e0e0e0"></path><path d="M354.42,295.63a1.82,1.82,0,0,0,1.2-.6,1.94,1.94,0,0,0,.73-1.15c-.07,0-.38.47-.9.95S354.39,295.56,354.42,295.63Z" style="fill:#e0e0e0"></path><path d="M352.83,295.22a3,3,0,0,0,1.52-.65,2.91,2.91,0,0,0,1.14-1.21c-.06-.05-.56.48-1.29,1S352.8,295.15,352.83,295.22Z" style="fill:#e0e0e0"></path><path d="M350.59,295.3a4.68,4.68,0,0,0,3.19-2.51c-.07-.05-.59.72-1.47,1.41S350.56,295.22,350.59,295.3Z" style="fill:#e0e0e0"></path><path d="M393.15,218.35a6.67,6.67,0,0,1,3.09-1.24,10.6,10.6,0,0,1,4.59,0,5.88,5.88,0,0,1,3.64,2.65,4.1,4.1,0,0,1-.16,4.37c-1,1.32-2.77,1.75-4.4,2s-3.37.33-4.73,1.28a4.32,4.32,0,0,0,2.61.86l-.94.49a3,3,0,0,0,2.27.81,5.8,5.8,0,0,1-4.29-.26,14.77,14.77,0,0,1-3.06-5.28A5.48,5.48,0,0,1,393.15,218.35Z" style="fill:#ebebeb"></path><path d="M406.55,221.18a1,1,0,0,0-.15-.23c-.1-.15-.28-.36-.5-.62a10.72,10.72,0,0,0-2.25-1.89,11.26,11.26,0,0,0-4.06-1.56,8.46,8.46,0,0,0-5.27.64,5.32,5.32,0,0,0-3,4.29,5.54,5.54,0,0,0,.46,2.31c.27.68.58,1.28.86,1.84a19.79,19.79,0,0,0,1.47,2.53c.2.29.37.5.48.64s.19.2.2.19-.23-.3-.6-.89a24,24,0,0,1-1.38-2.56c-.26-.55-.57-1.16-.83-1.83a5.39,5.39,0,0,1-.41-2.22,5.07,5.07,0,0,1,2.83-4.06,8.27,8.27,0,0,1,5.1-.64,11.38,11.38,0,0,1,4,1.48,12,12,0,0,1,2.27,1.8C406.3,220.89,406.53,221.2,406.55,221.18Z" style="fill:#e0e0e0"></path><path d="M370.23,245.45c0,.36-.09.81-.45.88a3.69,3.69,0,0,1-1.1,0,16,16,0,0,0-3.31.19,8.51,8.51,0,0,1-3.3-.13,3.37,3.37,0,0,1-2.34-2.16,9.88,9.88,0,0,0,5.06.78c.89-.11,1.76-.33,2.65-.39a3.87,3.87,0,0,1,2.56.59" style="fill:#ebebeb"></path><path d="M358.8,243.24a1.15,1.15,0,0,0,.29.39,4.17,4.17,0,0,0,1.05.78,7.83,7.83,0,0,0,4.2.74c1.67-.1,3.17-.32,4.24-.26a4,4,0,0,1,1.66.46,1,1,0,0,0-.38-.29,3.3,3.3,0,0,0-1.26-.35,30.44,30.44,0,0,0-4.27.17,8.18,8.18,0,0,1-4.11-.64A6.76,6.76,0,0,1,358.8,243.24Z" style="fill:#e0e0e0"></path><path d="M362.17,302.21c2.73-1.8,6.59-1.25,9.12.82a12.37,12.37,0,0,1,4.13,8.61c.28,3.25-2,10.51-3.23,13.59a53.1,53.1,0,0,0,1.07-14.39,7.67,7.67,0,0,0-2.69-5.59c-2.07-1.59-5-1.24-7.56-.79-.58.1-1.28.15-1.64-.31C360.89,303.52,361.51,302.64,362.17,302.21Z" style="fill:#e0e0e0"></path><path d="M365.49,303.86a8,8,0,0,1,2.67,0,6.14,6.14,0,0,1,4.09,3.63,14.25,14.25,0,0,1,1,5.54c.21,8.1-1.74,16.08-3.67,24,.32-.59,1.32-.37,1.61.23a2.38,2.38,0,0,1-.19,1.94,4.38,4.38,0,0,0-.58,1.9,2.6,2.6,0,0,0,1.47,2,4.88,4.88,0,0,1,1.16.71,1,1,0,0,1,.18,1.23,1.21,1.21,0,0,1-.65.34,7,7,0,0,1-2.77.14c.07.57.92.73,1.11,1.28s-.62,1.16-1.29,1.14-1.4-.26-2,.06c.08.47.17.94.25,1.41a24.55,24.55,0,0,1-7.47-1.67,17.28,17.28,0,0,1-5.52-3.4c-2.88-2.72-4.38-6.56-5.8-10.26-1.12-2.94-2.27-6-2.11-9.12a19.24,19.24,0,0,1,1-4.78" style="fill:#f5f5f5"></path><path d="M348,320.13s0,.06-.07.19l-.19.56a20.58,20.58,0,0,0-.57,2.2,12.34,12.34,0,0,0-.21,3.63,20.5,20.5,0,0,0,1.09,4.73q.88,2.56,2.11,5.55a24.17,24.17,0,0,0,3.38,6,15.74,15.74,0,0,0,6.18,4.54,24.24,24.24,0,0,0,8.15,2H368l0-.17c-.08-.43-.16-.92-.25-1.4l-.07.14A2.22,2.22,0,0,1,369,348a5.67,5.67,0,0,0,.73.06,1.82,1.82,0,0,0,.75-.2,1.28,1.28,0,0,0,.57-.56.79.79,0,0,0-.14-.82,2.61,2.61,0,0,0-.58-.49.83.83,0,0,1-.37-.5l-.15.15a6.85,6.85,0,0,0,2.8-.14,1.29,1.29,0,0,0,.75-.4.92.92,0,0,0,.12-.86,1.38,1.38,0,0,0-.49-.69,3.37,3.37,0,0,0-.68-.4,3.51,3.51,0,0,1-1.2-.86,2,2,0,0,1-.54-1.28c0-1,.75-1.78.89-2.81a1.77,1.77,0,0,0-.05-.79,1.11,1.11,0,0,0-.46-.65,1.28,1.28,0,0,0-.76-.22.8.8,0,0,0-.7.41l.24.09a143.79,143.79,0,0,0,3.1-15,57.51,57.51,0,0,0,.53-6.51,28.77,28.77,0,0,0-.28-5.62,8.69,8.69,0,0,0-1.84-4.19,5.54,5.54,0,0,0-2.85-1.85,6.14,6.14,0,0,0-2.15-.11l-.55.07-.18,0h.19l.55-.05a6.18,6.18,0,0,1,2.12.15,5.4,5.4,0,0,1,2.77,1.85,8.57,8.57,0,0,1,1.78,4.13,30.12,30.12,0,0,1,.25,5.58,62.36,62.36,0,0,1-.56,6.49,149.9,149.9,0,0,1-3.13,14.94l-.28,1.1.51-1c.19-.36.75-.34,1.09-.09a1.15,1.15,0,0,1,.4,1.18c-.11.94-.88,1.74-.9,2.85a2.26,2.26,0,0,0,.61,1.46,3.71,3.71,0,0,0,1.28.91c.45.23.91.48,1,.94a.67.67,0,0,1-.08.62,1.18,1.18,0,0,1-.61.31,6.83,6.83,0,0,1-2.69.13l-.18,0,0,.17a1,1,0,0,0,.47.68,3.07,3.07,0,0,1,.54.45.51.51,0,0,1,.09.54,1,1,0,0,1-.45.44c-.79.47-1.8-.25-2.76.25l-.09,0,0,.09c.09.49.17,1,.25,1.41l.14-.15a24.24,24.24,0,0,1-8.07-1.93,15.5,15.5,0,0,1-6.11-4.46,24.35,24.35,0,0,1-3.37-5.93c-.82-2-1.53-3.83-2.13-5.53a20.92,20.92,0,0,1-1.12-4.69,12.28,12.28,0,0,1,.17-3.59c.18-1,.39-1.71.53-2.21l.16-.56Z" style="fill:#e0e0e0"></path><path d="M377.56,267.69c.06-.05-.29-.5-.64-1.09s-.59-1.11-.66-1.08a2.11,2.11,0,0,0,.43,1.22C377.06,267.36,377.51,267.74,377.56,267.69Z" style="fill:#e0e0e0"></path><path d="M376.91,268.38c.06,0-.19-.5-.55-1s-.71-.9-.77-.86.18.5.55,1S376.85,268.42,376.91,268.38Z" style="fill:#e0e0e0"></path><path d="M375.81,269.17a3.4,3.4,0,0,0-.52-1c-.32-.55-.57-1-.64-1a2.1,2.1,0,0,0,.41,1.1C375.38,268.83,375.76,269.22,375.81,269.17Z" style="fill:#e0e0e0"></path><path d="M379.38,288.55c8.72-2.59,22.24-10.62,23-11.05a114.34,114.34,0,0,1,19.28-8.87,7.41,7.41,0,0,0,3-2c.53-.78.61-2-.32-2.16.8-.19,1.64-.27,2.11-1s.16-2.26-.67-2.2a2.73,2.73,0,0,0,1.12-3.34,3.38,3.38,0,0,0-3.46-1.94c-.33,1.08-.62,1.47-1.74,1.4L411,256.7c.31-1.37.42-3.18-.84-3.79s-2.65.65-3.07,2-.31,2.78-.89,4c-.86,1.84-2.94,2.71-4.84,3.42-3.07,1.15-7.77,2.85-10.84,4a9.59,9.59,0,0,1-6.25-.52c-1.48-.67-6.82-4.1-6.82-4.1" style="fill:#f5f5f5"></path><path d="M377.46,261.69l.17.13.54.35,2.07,1.33c.92.57,2,1.28,3.39,2a9.47,9.47,0,0,0,5.13,1.14,10.14,10.14,0,0,0,1.51-.21c.52-.13,1-.34,1.51-.52l3.18-1.16,7.1-2.61A9.11,9.11,0,0,0,405.6,260a4.45,4.45,0,0,0,1-1.93c.18-.72.24-1.45.37-2.18a4.06,4.06,0,0,1,.79-2,2.25,2.25,0,0,1,1.84-1,1.47,1.47,0,0,1,.94.47,2,2,0,0,1,.46,1,6.29,6.29,0,0,1-.13,2.32l0,.15H411l6.45.42,3.33.22.84.06a2.78,2.78,0,0,0,.9-.07,1.19,1.19,0,0,0,.7-.6,4.4,4.4,0,0,0,.33-.82l-.09.09a2.63,2.63,0,0,1,1.92.38,3.25,3.25,0,0,1,1.4,1.53,2.61,2.61,0,0,1-1.08,3.13l-.59.3.66-.05c.35,0,.6.37.69.74a1.83,1.83,0,0,1-.09,1.16,1.59,1.59,0,0,1-.89.69,11.5,11.5,0,0,1-1.19.3l-.64.15.64.1a.81.81,0,0,1,.61.93,2.1,2.1,0,0,1-.49,1.19,7,7,0,0,1-2.17,1.56,10.51,10.51,0,0,1-1.25.5l-1.27.46c-.84.31-1.66.62-2.48.95-3.26,1.29-6.32,2.71-9.16,4.16s-5.48,2.94-7.91,4.35-4.74,2.64-6.85,3.74c-4.21,2.2-7.69,3.77-10.13,4.75-1.22.48-2.17.84-2.82,1.05l-.74.25-.25.1a38.34,38.34,0,0,0,3.85-1.31,107.67,107.67,0,0,0,10.17-4.69c2.11-1.08,4.42-2.32,6.87-3.71s5.07-2.87,7.91-4.32,5.9-2.85,9.16-4.14c.81-.32,1.63-.64,2.47-.94l1.27-.46a11.13,11.13,0,0,0,1.27-.5,7.66,7.66,0,0,0,2.27-1.63,2.44,2.44,0,0,0,.54-1.35,1.26,1.26,0,0,0-.17-.75,1,1,0,0,0-.64-.44v.25a9.84,9.84,0,0,0,1.22-.3,1.86,1.86,0,0,0,1-.82,2.06,2.06,0,0,0,.1-1.34,1.57,1.57,0,0,0-.29-.63.79.79,0,0,0-.67-.32l.07.25a2.51,2.51,0,0,0,1.23-1.5,3.06,3.06,0,0,0,0-2,3.51,3.51,0,0,0-1.52-1.66,2.84,2.84,0,0,0-2.12-.41l-.07,0,0,.07c-.17.53-.36,1.11-.86,1.25a2.35,2.35,0,0,1-.8.05l-.84-.05-3.34-.22-6.44-.42.12.16a6.37,6.37,0,0,0,.13-2.42,2.16,2.16,0,0,0-.53-1.12,1.71,1.71,0,0,0-1.1-.55,2.48,2.48,0,0,0-2.05,1.08,3.55,3.55,0,0,0-.57,1,6.41,6.41,0,0,0-.27,1.11c-.12.74-.18,1.47-.36,2.16a4.18,4.18,0,0,1-1,1.84A8.83,8.83,0,0,1,402,262l-7.08,2.64-3.18,1.17c-.51.18-1,.41-1.49.53a9.59,9.59,0,0,1-1.48.21,9.34,9.34,0,0,1-5.06-1.09c-1.35-.74-2.48-1.44-3.4-2l-2.1-1.3-.54-.33Z" style="fill:#e0e0e0"></path><path d="M371.17,286.31c.6-.45,1.35.26,1.84.82,0,0,1.32,1.14,5,1.49s17-6.83,17-6.83c-3.29,2.48-6.63,5.6-9.92,8.08-2.13,1.61-4.49,3.3-7.17,3.28-3.07,0-5.74-2.46-6.86-5.32C370.84,287.32,370.73,286.64,371.17,286.31Z" style="fill:#e0e0e0"></path><path d="M421.31,262a3.67,3.67,0,0,0,2.25.11,3.75,3.75,0,0,0,2-1,8.13,8.13,0,0,1-4.26.88Z" style="fill:#e0e0e0"></path><path d="M420.48,264.92a4.21,4.21,0,0,0,2,.1,4,4,0,0,0,1.91-.65c0-.07-.87.24-1.94.38S420.49,264.84,420.48,264.92Z" style="fill:#e0e0e0"></path><path d="M90.72,154.9c.46-3.35-4.26-6.1-7.81-6.39-1.69-.13-3.45.13-5-.43-3.47-1.21-4.86-5.7-8.25-7.13-2.53-1.07-5.45-.12-7.9,1.12s-4.89,2.79-7.63,3c-2.39.15-5-.73-7.07.43-1.55.87-2.37,2.66-3.8,3.72a9.06,9.06,0,0,1-5,1.35,13.79,13.79,0,0,0-5.13.84c-1.59.72-2.9,2.4-2.57,4.11Z" style="fill:#f5f5f5"></path><path d="M357,57.33c.53-3.88-4.93-7.06-9-7.39-2-.16-4,.14-5.85-.51-4-1.4-5.62-6.59-9.54-8.25-2.93-1.23-6.31-.13-9.15,1.3s-5.65,3.23-8.83,3.43c-2.76.18-5.76-.84-8.18.51-1.8,1-2.74,3.08-4.4,4.3a10.5,10.5,0,0,1-5.76,1.56,16.2,16.2,0,0,0-5.93,1c-1.84.84-3.36,2.78-3,4.76Z" style="fill:#f5f5f5"></path><path d="M453.35,141c.32-2.32-3-4.23-5.43-4.43a14.17,14.17,0,0,1-3.51-.31c-2.41-.84-3.37-4-5.73-5-1.76-.74-3.78-.08-5.49.78s-3.39,1.94-5.3,2.06c-1.66.11-3.46-.51-4.91.3-1.08.61-1.64,1.85-2.64,2.59a6.27,6.27,0,0,1-3.46.93,9.69,9.69,0,0,0-3.56.59,2.81,2.81,0,0,0-1.78,2.85Z" style="fill:#f5f5f5"></path></g><g id="freepik--Plant--inject-46"><path d="M351.3,356.92q7.17,51.07,14.35,102.16l3.73.12C367,424.5,364.46,389.11,351.3,356.92Z" style="fill:#455a64"></path><path d="M391.14,352.14c-10,11-14.05,26.07-16.58,40.72-3.6,20.77-3.93,45.29-2.85,66.34l5.23.11A288.23,288.23,0,0,1,391.14,352.14Z" style="fill:#455a64"></path><path d="M353.94,417.36c-1.15-5.06-2.47-10.21-5.36-14.52-3.9-5.83-10.26-9.51-16.66-12.38s-13.13-5.16-18.9-9.13c6.44,10.58,21.08,13.39,28.54,23.28,3.71,4.93,5.25,11.1,6.7,17.09,3.17,13.06,5.12,24.36,8.29,37.41h4.24A335.14,335.14,0,0,0,353.94,417.36Z" style="fill:#455a64"></path><path d="M380.77,459.2s3.59-40.58,6.25-48,27.85-28,27.61-27.07-18.89,23.49-21.55,28.09-7.27,47-7.27,47Z" style="fill:#455a64"></path></g><g id="freepik--Floor--inject-46"><path d="M448.8,460.67c0,.15-91.7.26-204.79.26s-204.81-.11-204.81-.26,91.68-.26,204.81-.26S448.8,460.53,448.8,460.67Z" style="fill:#263238"></path></g><g id="freepik--Australia--inject-46"><path d="M187.48,206.23l-2.86,2.12A3.63,3.63,0,0,0,187.48,206.23Z" style="fill:#455a64"></path><path d="M322.62,69.93c-.81-1.18-.79-2.08-1.53-2.54l-3,.94c-.88.63,0,.45-1.33.76-2.84-2.65-1.51-8.21-2.46-11.75-.38-1.51-.69-3.6-2.71-4.1a6.58,6.58,0,0,1,1.26-2.6c-1-.5-1.52-.37-2.53-.88,0-2.72-.06-4.74-1.32-6.89-.82-1.38-.26-1.51-2.15-1.7-.51,2-.32.82-2.15,1.7a12.19,12.19,0,0,1-1.58,6.64c0,.06-.13.19-.13.25l-.37.51a8.3,8.3,0,0,0-1.77,4.23h1.26c-.13,2-.13.82-.95,2-1.13,1.71-.5-.13-.25,2.15s-1.52,2.4-1.33,4.8c.13,1.58.7,1.07.63,2.59,0,.88-.44,1.26-.37,2.46.12,3.22,1.32,2.4-.13,5.5s-.95,6.32-2.91,9.54a41.85,41.85,0,0,0-2.21,4.67c-.63,1-3.28,2.15-4.86,1.9-1.08-.13-3.29-1.58-4.36-2.15-.82-.44-1.45-.7-1.83-1.52s-.13-.57-.51-1.26c-1-2.15-3.85-2-5.87-2.72s-2.78-3.66-7.71-5.62l-1.06-.33-.78,43.75ZM310,63.74l.69-2.7.69,2.7,2.67-.51-2.24,1.82.82,2.42-1.94-1.6-2,1.6.87-2.42-1.81-1.31ZM277,93.57l1.19-4.66,1.2,4.66,4.6-.87-3.87,3.14,1.43,4.16-3.36-2.76L274.72,100l1.5-4.16-3.12-2.26Z" style="fill:#455a64"></path><path d="M172.77,82.86A2.57,2.57,0,0,0,171.11,84l1.82,1.06C172.58,84.67,172.61,84.66,172.77,82.86Z" style="fill:#455a64"></path><path d="M351.09,126.38a9.24,9.24,0,0,0-.69-4c-2-4,.89-.31-2.84-4.48a6.58,6.58,0,0,1-1.14-1.9h1.71a4.56,4.56,0,0,0-2.4-3.53c-1.26-.57-.63.12-1.52-.76-.06,0-.12-.13-.19-.19l-.95-.76c-1.51-1-1.26.25-1.83-2.08l-.57.31a.74.74,0,0,0-.25.13c-.95.25-.63-1.71-1.51-2.78-1-1.33.38.82-1.84-.32-1.2-.57.07,0-.69-.5a1.9,1.9,0,0,0-.89-.44l-.75-.19a8.93,8.93,0,0,1-2-1.06l-32.16,24.53Zm-18.37-11,.69,2.7,2.67-.51-2.24,1.82.83,2.42-1.95-1.6-2,1.6.86-2.42-1.8-1.31H332Z" style="fill:#455a64"></path><path d="M269,51.09l-.16-.11v.34C268.93,51.24,269,51.17,269,51.09Z" style="fill:#455a64"></path><path d="M346.61,219.82l.26-1.14,0-.07L265.1,169.67l1.29,34.39a4.17,4.17,0,0,0,1.57-1.55,10.92,10.92,0,0,1,1.9-3.22c1.07-1.14.32.44.95-1.21.24.28.21.21.19.19l.38.51a8.33,8.33,0,0,1,.69,1c-1.26.13-1.07.19-1.7.82.88,2,.94,1.71-.07,2.91a10.14,10.14,0,0,0-2.14,6.76c0,1.87-.3,2-1.46,2l.09,2.29a4.75,4.75,0,0,1,.54-.2c1.84-.44,2,1,3-1.26l1.7-5.18.82,1.33c.07.12.07.25.13.31l.32.57a.48.48,0,0,1,.12.25c2.4,4.87-1.58,5-1.83,7.84a14.13,14.13,0,0,0,4.3-.82c.06.06.18.06.25.19s.19.12.25.19c2.65,2.27,5.49,5.24,4.3,9.15,0,.07-.07.2-.07.26l-.12,2.14c.31,1.27,1.2,1.9,1.83,2.72l1.77,2.91c1.32,1.45,3.28.82,4.8,2.52l1.2,1.39c1.26-.44,1.26-.94,2.59-.56l.94.37c.13.07.26.07.39.13,1.13.32.56-.06,1.64.51.82.44,4.36,2.46,4.73,3.41,2.4-.19,7-6.13,8.15-1.71,2.15-.19,2.22-1.51,3.92-1.7l-.32.57c-.56,1.26-.31-.76-.56,1.57l2,1.84.63.63,1.33.5a3.56,3.56,0,0,1,.75,1.77,2.12,2.12,0,0,0,1.27-3c5.05,0,6.5-5.05,11.87-4.86,3.48.18,6.19,1.2,8.72-.83l.89-1.2c.63-1.51,0-1.89.25-3.22l2.27-6.25c1.77-4.68,3.48-4.74,4.55-5.56,1.26-1.07.32-.32.44-1.14Zm-60.93-15.38-1.95-1.6-2,1.6.87-2.41-1.81-1.31H283l.69-2.7.7,2.7,2.66-.5L284.85,202Zm24.6,17.71,2.28,6.66-5.37-4.42-5.48,4.42,2.4-6.66-5-3.62h6.17l1.9-7.46,1.91,7.46,7.37-1.4Z" style="fill:#455a64"></path><path d="M202.52,195.12l2.08-.07c3-.06,5.63-1.45,8.22-2.52,5.05-2,4.54-3.48,12.38-3.48a19.49,19.49,0,0,0,4.93-.69,2.24,2.24,0,0,1,.77,0V174.14Z" style="fill:#455a64"></path><path d="M323.24,258.67l-5.75.82a18.69,18.69,0,0,1-2.84.63c-2.21-.13-3.35-2.78-6.44-3.41-.76-.13,0,.12-1.14-.38-1.52-.63.38-.19-1.46-.69-.06,2-.44,1.45-.44,3a11.65,11.65,0,0,0,1.27,5.24c.56,1.14.82.76.75,2.4-.06,3.09-.44,4,.89,6.57.69,1.45,2.08,3,2.27,4.67,3,0,2.59-.12,3,.89,2.84-.07,1-.63,2.59-.89.13,0,2.91.7,2.15-3,2.15.56,1.14,1.7,2.53,1.57,1.13-.12.56-1.07.75-2.4.13-1.57-.56-.37,1.46-1.32l-.44-2.59c0-3,.69,0,1.7.44l1.26-9.1c.13-.69.95-.37-.82-3C322.55,258.48,323.68,258.54,323.24,258.67Z" style="fill:#455a64"></path><path d="M153.93,110.37l-2,.73c-1.45.5.07.32-1.58.44-2.08.19-1.13-1-2.9.19-1.64,1-.32,1-1.71,2.15-2.15,1.7-2.46-.7-6.5,3.41a3.49,3.49,0,0,1-2.66,1.07c-2.21-.06-.57-1.26-3.41.64-.19-2.28.44-.82-.82-1.33-.38,1.39-.32,1.14-1.45,2-2.59,2-.51-.57-4.24,3.54l-.44.44L125,125.31c-.07.07-.26.38-.38.51-1.18,1.32-3.14,1.56-4.58,2.88h71.9Zm-9.36,17-1.95-1.6-2,1.6.87-2.41-1.81-1.32h2.23l.69-2.7.7,2.7,2.67-.51L143.74,125Z" style="fill:#455a64"></path><path d="M302.58,247.49c-.44,1.76-.12.06-.57,1.39-.69,2.08-.75,3.85,1.84,2.46C303.85,248.31,304.16,248.56,302.58,247.49Z" style="fill:#455a64"></path><path d="M364,196.23a8.34,8.34,0,0,0,1-3.83c0-2.27,2.84-6.44,3.6-9a11.68,11.68,0,0,1,1.39-3,8.44,8.44,0,0,0,1.07-6.13c-.31-3-1.05-4.58-1.5-7.07a3.77,3.77,0,0,0,.37-.64,2,2,0,0,0,.25-.88c.21-1.49.06-2.45.14-3.6L305,163.31Zm-8.76-18.86,1.19-4.66,1.19,4.66,4.61-.87-3.87,3.14,1.43,4.17L356.46,181,353,183.81l1.5-4.17-3.12-2.26ZM336.78,168l.69,2.7,2.67-.5L337.9,172l.82,2.41-1.94-1.6-2,1.6.87-2.41-1.81-1.31h2.24Z" style="fill:#455a64"></path><path d="M225.51,51.26l-.06,0a4.08,4.08,0,0,1-2,.19c0,1.13,0,1.07-.94,2.46s-.07,1.26-2.09,1.45c0,3.1.32,1.33.89,3.41l-1.4.51c-2.14.5-1.13.5-1.89,2.65-.82,2.34-1.83.64-2.72,4.61,1.39,1,1.71,1,2,1.84a3.43,3.43,0,0,1,.19,1.58c-4.1-.32-2.27.25-3.79-.13a16,16,0,0,0-4.8-.76c-.06,3.16-.13,1-.88,1.83l-.19.19-.64,1c.07-3,.64-.88.83-3.41-3.6-1-3.48-4.86-7.14-5.49-3-.57,0-.89-3.16-.95-.76,1.58-.32,1.89-1.71,3,.44-2,.26-.63,0-1.27-1.58.38-.94.45-2.14,1.27-.26-2-.51-1.65-2.15-.82.31,1.26-.07.88,1.26,1.26a5,5,0,0,0-.88,2.59l-2.53-2.15c-1.14,2.21.25,1.46-1.64,2.66l-.57.31a14.49,14.49,0,0,0-1.26.89c.63,2.33,1.13.44.44,2.14-1.45.19-1.58.63-2.59,2-.07,0-.13.13-.19.13a2.07,2.07,0,0,1-.32.38c-.19.19-.5.44-.69.63-.63.57-1.39.82-1.58,2.15a3.74,3.74,0,0,0,1.07,2.46c-.94,1.14-.82.76-.88,2.59l-1.9-.63c-2-.44-1,1.07-1.51-.63H175.8c0,2.9-1.08,2.21-.44,3.47.44.82,1.58,1.07,2.59,2.53-.87.35-.6.34-1.15.15,12.7,7.43,34.83,20.49,52.55,30.9ZM183.56,88.52l-1-.83-1,.83.45-1.25-.94-.69h1.16l.36-1.41.36,1.41,1.4-.26-1.17,1Zm16-1.18L195.1,91l2-5.43-4.07-3h5l1.55-6.09,1.56,6.09,6-1.14-5,4.1L204,91Zm8.72,16.93L207,103.21l-1.32,1.06.57-1.6-1.2-.87h1.49L207,100l.45,1.8,1.78-.34-1.49,1.21Z" style="fill:#455a64"></path><path d="M135.77,214.16l31-22.33L206,163.31H115.3c2.66,2.95,5.9,4.79,6.8,9.32.45,2.4,3,3.66,3.86,5.68.5,1.14-.19.26.69,1.39.44.51.82.76,1.33,1.27,1,1.2,1.14,1.83,1.45,3.72,1.45,9.1,6.95,11,7.52,16.43l.06,3.22c-.31,1.89.25,1.58.7,3.47.44,1.71-.26,2.53-.64,4a10.08,10.08,0,0,1-2.52-.37c0,3.09-.13,5.93,2.65,5.87a4,4,0,0,1,1.17.15l1.16-.82Zm26.49-41.52.69-2.7.69,2.7,2.67-.51L164.07,174l.83,2.42-2-1.6-2,1.6.87-2.42L160,172.64Zm-25.5,18.26,2.4-6.66-5-3.62h6.17l1.9-7.46,1.91,7.46,7.37-1.4-6.19,5,2.28,6.66-5.37-4.42Z" style="fill:#455a64"></path><path d="M324.06,251c-.32,1.2.7.69-.82.82l1.71,3.86c.75-.39.5-.32,1.7-.39,0-2.65.06-1.7-.88-3C325.2,251.47,325.2,251.21,324.06,251Z" style="fill:#455a64"></path><path d="M269.48,217a17,17,0,0,0-2.59.18l.13,3.56c1.76-.18,1.5-.55,3.91-1,1.39-.25,1.52.19.7-1.51h-2.15Z" style="fill:#455a64"></path><polygon points="209.02 221.88 206.88 211.05 203.56 221.58 194.72 221.1 201.58 226.68 197.62 236.02 205.82 230.13 213.16 236.88 210.42 227.17 219.68 220.47 209.02 221.88" style="fill:#455a64"></polygon><polygon points="407.08 161.13 395.66 163.3 392.7 151.74 389.75 163.3 380.19 163.31 387.92 168.92 384.21 179.24 392.7 172.39 401.02 179.24 397.49 168.92 407.08 161.13" style="fill:#455a64"></polygon><polygon points="307.19 211.06 305.29 218.52 299.12 218.53 304.11 222.15 301.71 228.81 307.19 224.39 312.56 228.81 310.28 222.15 316.47 217.12 309.1 218.52 307.19 211.06" style="fill:#fafafa"></polygon><polygon points="147.61 190.9 145.33 184.24 151.52 179.21 144.15 180.61 142.24 173.15 140.34 180.61 134.17 180.62 139.16 184.24 136.76 190.9 142.24 186.48 147.61 190.9" style="fill:#fafafa"></polygon><polygon points="353.03 183.81 356.46 181.04 359.82 183.81 358.39 179.64 362.26 176.5 357.65 177.37 356.46 172.71 355.27 177.37 351.41 177.38 354.53 179.64 353.03 183.81" style="fill:#fafafa"></polygon><polygon points="207.14 81.42 201.13 82.56 199.57 76.47 198.02 82.56 192.98 82.56 197.06 85.52 195.1 90.95 199.57 87.34 203.95 90.95 202.09 85.52 207.14 81.42" style="fill:#fafafa"></polygon><polygon points="274.73 100 278.15 97.24 281.51 100 280.08 95.84 283.95 92.7 279.35 93.57 278.15 88.91 276.96 93.57 273.1 93.58 276.22 95.84 274.73 100" style="fill:#fafafa"></polygon><polygon points="331.61 119.42 330.74 121.84 332.72 120.24 334.67 121.84 333.84 119.42 336.08 117.6 333.41 118.11 332.72 115.41 332.03 118.11 329.8 118.11 331.61 119.42" style="fill:#fafafa"></polygon><polygon points="335.66 172.04 334.79 174.45 336.78 172.85 338.72 174.45 337.9 172.04 340.14 170.22 337.47 170.72 336.78 168.02 336.09 170.72 333.85 170.73 335.66 172.04" style="fill:#fafafa"></polygon><polygon points="284.43 200.71 283.73 198.01 283.04 200.71 280.81 200.72 282.62 202.03 281.75 204.44 283.73 202.84 285.68 204.44 284.85 202.03 287.1 200.21 284.43 200.71" style="fill:#fafafa"></polygon><polygon points="143.32 123.69 142.62 120.99 141.93 123.69 139.7 123.69 141.51 125 140.64 127.42 142.62 125.82 144.57 127.42 143.74 125 145.99 123.18 143.32 123.69" style="fill:#fafafa"></polygon><polygon points="160.96 176.37 162.95 174.77 164.9 176.37 164.07 173.95 166.31 172.13 163.64 172.64 162.95 169.94 162.26 172.64 160.02 172.64 161.83 173.95 160.96 176.37" style="fill:#fafafa"></polygon><polygon points="308.73 67.47 310.72 65.87 312.67 67.47 311.84 65.05 314.08 63.23 311.41 63.74 310.72 61.04 310.03 63.74 307.79 63.74 309.6 65.05 308.73 67.47" style="fill:#fafafa"></polygon><polygon points="281.75 70.68 283.73 69.08 285.68 70.68 284.85 68.27 287.1 66.45 284.43 66.95 283.73 64.25 283.04 66.95 280.81 66.96 282.62 68.27 281.75 70.68" style="fill:#455a64"></polygon><polygon points="381.13 142.45 383.12 140.85 385.06 142.45 384.23 140.04 386.48 138.22 383.81 138.72 383.12 136.02 382.42 138.72 380.19 138.73 382 140.04 381.13 142.45" style="fill:#455a64"></polygon><polygon points="207.45 101.8 207 100 206.54 101.8 205.05 101.8 206.25 102.67 205.68 104.27 207 103.21 208.29 104.27 207.74 102.67 209.22 101.46 207.45 101.8" style="fill:#fafafa"></polygon><polygon points="182.9 86.58 182.54 85.17 182.18 86.58 181.02 86.58 181.96 87.27 181.51 88.53 182.54 87.69 183.56 88.53 183.13 87.27 184.3 86.31 182.9 86.58" style="fill:#fafafa"></polygon><path d="M260.7,64.61c.51-.64.13-.07.51-.76l.38-1c.06-.06.06-.19.12-.25.25-.63.63-1.58.89-2.15-1.77-.7.06.32-1.71-.44.7-1,.51-.44.88-1.71,2.22-1.07,1.65-.44,3,0,2.59-3.79,1.08-1.39,1.65-3.6.47-1.72,1.61-2.22,2.48-3.43V51l-1.42-.9c-1.77-.95-1.39.69-1.39-2.47a8.06,8.06,0,0,0-3.47,2.59c-.45-.57-.45.89-.45-1.26a6.59,6.59,0,0,1-2.14.82c1.26-1.64.69,0,1.32-1.71-1,.24-1.74.4-2.39.57l-.21,18.59A25,25,0,0,0,260.7,64.61Z" style="fill:#fafafa"></path><path d="M236.84,49.36l-1.91.65a.46.46,0,0,1-.26.13l-3.85.44c-1.64-.19-1.07-.38-1.71-1.64-.31.13-.75.38-1.13.57l-1.08.63c-1.25.94.59.39-1.39,1.12l3.84,66.95c-17.72-10.41-39.85-23.47-52.55-30.9l-.56-.15c.19,2.27.51.76,0,3-1.33-1-.63-.7-2.15-3.47a7.22,7.22,0,0,0-1.16-1.66L171.11,84c-.27.41-.46.9-.87,1.45l-2.09,2.21A8.71,8.71,0,0,0,166.74,90l63.59,36.86-29.05.52L161.42,106.1c-1.57,2.06-3.59,2.82-7.49,4.27l38,18.33H120c-1,1-1.8,2.45-1.8,5.33h-1.27a30.3,30.3,0,0,1-.44-4.74c-2.21,1.46-3,5.18-3,7.71,1.06.39.72-.22.84.27l124.49-1.65Z" style="fill:#fafafa"></path><path d="M358.77,133.9a6.1,6.1,0,0,0-.72-4.17c-1.71.57-.07.07-1.71,1.27-.95-1.39-1.26-1-1.77-3-1.89.51-.94,1.14-2.53,1.7a7.85,7.85,0,0,1-1-3.35l-50.54,1.94,32.16-24.53c-1.21-.92-.88-1.93-.88-4.57-2.32-.62-1.79-2.14-1.33-3.7l-37.32,31.24-27,.89,60.06-51.27-.1-2.17c.19-.89.07.38.51-1.2l-1.14-.57a8.78,8.78,0,0,1-2.89-2.51l-55,50.35.78-43.75L266.89,76c-.06,0-1.89-1.26-2-1.39l-1.64-1.83c-.51-.44-1.39-.95-2-1.46l-1.84-1.13c-.27-.15-.49-.25-.67-.33L258,135.37Z" style="fill:#fafafa"></path><path d="M116.05,153.15a8.82,8.82,0,0,0,1,1.35c.06.06.19.12.25.19.51.63.57.82,1.08,1.51,1.7,2.21,2.4,1.08,2.4,6.19h-.89c-.57-2.65-2.15-4.92-4.73-5.62,0,4,1.07,1.33,1.32,4.3-1-.63-.44-.51-1.7-.82-.19,2.21.38.76-.89,1.26a17.26,17.26,0,0,0,1.41,1.8H206l-39.17,28.52-31,22.33,3.76,2.46,78.07-54.89h17.8l-63.74,47.53,2.18-.31c.38,0,.51.06,1,.06,1.58-.12-.44-.25,1.14-.25l.63.19a.31.31,0,0,1,.19.13c1.52.69-1.14.38,1.58.57.38-1,.88-1.46,3.6-1.39a19.54,19.54,0,0,0,2.63.09l2.86-2.12a10,10,0,0,0,.89-2.46,4.16,4.16,0,0,1,.82-2.21c1.07-1.26,1.77-.7,3.48-1.71,6.11-3.56,4.64-4.49,9.85-4.73l28.38-21v14.24c2,.38,5.09,2.81,6.36,3.64,2-.5,1.54-1.31,2.78-.69L239.22,155Z" style="fill:#fafafa"></path><path d="M346.89,218.61c.62-1.61,1.07-3,2.31-4l0,0-85.15-54h23.05l74.68,38.9a21.72,21.72,0,0,0,2.21-3.19l-59-32.92,65.39-1.23a8.88,8.88,0,0,1,.36-2.09c.63-2.14,1-.5,0-2.59-.82-1.7-.57.19-.57-2.52v-.61l-112.21,1,1.93,54.55a28.52,28.52,0,0,1,2.33-3.1c1.08-1.38,2.8-1.83,4.17-2.68l-1.29-34.39Z" style="fill:#fafafa"></path><path d="M264.24,217.8c-3.16.82-1.77,1.51-.76,3,1.75,0,2.81-.05,3.54-.12l-.13-3.56A20.85,20.85,0,0,0,264.24,217.8Z" style="fill:#fafafa"></path><path d="M236.63,42.62c-.69-.44-.19-.19-.88-.31l-2.4.19c-.32.12.63.19-1.27.37V44.2c1.65.38.13-.06,1.2.51.13.06.19.12.32.19s.13.12.25.12c1.14.52,1.37.11,2.89,0l-.06-2.38Z" style="fill:#fafafa"></path><polygon points="260 213.12 260 213.1 260 213.12 260 213.12" style="fill:#fafafa"></polygon><path d="M265.18,212.24c-.37,1.58-.69,1.2-.88,3a6.41,6.41,0,0,0,2.49-.69l-.09-2.29C266.3,212.27,265.8,212.24,265.18,212.24Z" style="fill:#fafafa"></path><path d="M293.18,126.76,330.5,95.52a8.16,8.16,0,0,0,.32-1.41c.38-3.16-1.52-3.54-.76-7-4.23-.07-2.52-4.23-3.73-8.78l-.09-2-60.06,51.27Z" style="fill:#4CAF4F"></path><path d="M264.09,160.52l85.15,54c2.47-2.07,1.44-3.53,5.21-7.61l2.46-1.39c.13-.06.19-.13.31-.13l2.72-2a.89.89,0,0,1,.13-.31c.44-1,.19-1.52.88-2.53.27-.38.57-.75.87-1.13l-74.68-38.9Z" style="fill:#4CAF4F"></path><path d="M217.6,161.73l-78.07,54.89-1.16.82c2.79.76,4.38,4.15,9.63,3.26,1.84-.31,4.93.13,6.57-.82s1.9-2,2.53-2.72l.19-.19.63-.69.38-.44,1.26-.76c1-.13,2.59,0,3-1.52,0,0,.06-.69.06-.82.63-2.4,4-2.34,6.25-3.09l2.75-.39,63.74-47.53Z" style="fill:#4CAF4F"></path><path d="M370.17,154.27c0-1.62-.16-.69-1.07-1.6-1.32-1.39-.69-1.14-1.2-2.72-.82-2.46-.25-.32-1.77-2.09-1-1.19-1-3.91-2.46-4.8l-.76-.25c-1.58-.44-2.27-1.77-3.22-3.16-.57-.76-.51-.06-1-1.51-.58-1.74-.13-2.91.09-4.24L258,135.37l.74-65.47c-.95-.4-.79-.06-.84-2.07a2.66,2.66,0,0,0,.87-.62l.21-18.59a7,7,0,0,0-3.23,1.58c-1.07-.76-1.71-.69-2.15-2.15-2.15.19-.57.32-2.53.89a9.89,9.89,0,0,0-3.47-1.77v-.82c-2.27.19-3.79,1.45-5.75-.76-.12-.12-.95-1.58-1.13-1.83-1.58.44-.89.44-2.15,1.26a3.31,3.31,0,0,0-1.85-2.36l.06,2.38.52,0c.45,1.65.57.7.83,3.92l-1.25.42,1.94,86.26-124.49,1.65a5.72,5.72,0,0,0,.3.8,6,6,0,0,1-.32,5.31,7,7,0,0,0-.82,2.34v3.09c.13,1,.38.7,1.39,1.9s.64,1.47,1.21,2.44L239.22,155l.82,36.32c.32.17.76.42,1.39.82,1.83,1.07,3.1.69,5.25,1.2.57,1.32.19.06,0,2.15,1.39-.32,1.39-.57,2.59,0-.38.94-.82.63-1.08,1.58l.89,2.46c1.07,1,1.89-.06,3,1.32.88,1.08.69,1.84,2.27,3.8a7,7,0,0,1,1.39,4.17c-.06,0-.19-.07-.19,0s-.19.06-.19.06-.19.06-.25.06L254,210.09c2.59.25,1.9,1.89,4.24,2.46.82.13.06-.06.88.19,0,0,.13.19.88.38v0l-.31-1.68a1.94,1.94,0,0,1,.2-1.58L258,155.29Z" style="fill:#4CAF4F"></path><path d="M230.33,126.9,166.74,90a4.47,4.47,0,0,0-.29,1c-.06,1.27.76,2,.76,4.24.27.14.2.24.15.28a8.35,8.35,0,0,1,1.11-.28c-.25.94-.06.5-.63,1.13l-.38.45c-.63.69-.25.25-.7.63l-.69.57c-.06.06-.19.12-.25.19l-.51.38c-1.07.88-.82,1-1.32,2.14l-.19.57a18.67,18.67,0,0,1-2.38,4.73l39.86,21.32Z" style="fill:#4CAF4F"></path><path d="M167.36,95.59c-.07,0,0,0,0,0Z" style="fill:#4CAF4F"></path></g><g id="freepik--Kangaroo--inject-46"><path d="M166.23,370.52c-4.45,1-9.33,2.22-11.9,6-1.85,2.72-2.08,6.19-2.25,9.48l-.63,12.35a20.64,20.64,0,0,0,.39,6.66,7,7,0,0,0,4.17,4.89c2.12.71,4.84-.36,5.43-2.51.47-1.72-.42-3.47-.94-5.17-1.14-3.76-.45-7.8.24-11.67a9.36,9.36,0,0,1,1.75-4.65,13.18,13.18,0,0,1,3.68-2.39,16.27,16.27,0,0,0,7-7.79Z" style="fill:#4CAF4F"></path><path d="M124.79,304.44l-8.26-.34c1.69,6.45,3,13.46.51,19.66-3,7.46-10.35,17.57-13.89,24.27-2.22,4.2.18,9.48,2.26,16.2.38,1.2.89,2.55,2.06,3,1.54.58,3.2-.88,3.6-2.47s0-3.26-.13-4.9a19.13,19.13,0,0,1,2.35-9.81c1.53-3,3.53-5.82,5.34-8.7a54.26,54.26,0,0,0,7.55-17.8A33.3,33.3,0,0,0,124.79,304.44Z" style="fill:#4CAF4F"></path><g style="opacity:0.30000000000000004"><path d="M124.79,304.44l-8.26-.34c1.69,6.45,3,13.46.51,19.66-3,7.46-10.35,17.57-13.89,24.27-2.22,4.2.18,9.48,2.26,16.2.38,1.2.89,2.55,2.06,3,1.54.58,3.2-.88,3.6-2.47s0-3.26-.13-4.9a19.13,19.13,0,0,1,2.35-9.81c1.53-3,3.53-5.82,5.34-8.7a54.26,54.26,0,0,0,7.55-17.8A33.3,33.3,0,0,0,124.79,304.44Z"></path></g><path d="M99.69,169.29c-.2-1.49-.69-3.17-2.07-3.75a3.17,3.17,0,0,0-2.73.28,9.2,9.2,0,0,0-2.15,1.84c-5,5.35-9.9,11.39-11,18.63-.9,5.73,2,13.77,3.58,19.35l14.2-6.3c.22-6.54.19-14.77.41-21.31A52,52,0,0,0,99.69,169.29Z" style="fill:#4CAF4F"></path><g style="opacity:0.30000000000000004"><path d="M99.69,169.29c-.2-1.49-.69-3.17-2.07-3.75a3.17,3.17,0,0,0-2.73.28,9.2,9.2,0,0,0-2.15,1.84c-5,5.35-9.9,11.39-11,18.63-.9,5.73,2,13.77,3.58,19.35l14.2-6.3c.22-6.54.19-14.77.41-21.31A52,52,0,0,0,99.69,169.29Z"></path></g><path d="M188.82,383.2c.51.41.35,54-.32,57.22s-14.24,6-19.29,6.8-43.86,1.62-45.77,9.58,8.39,6.12,8.39,6.12l79.34-9.35.37-67.77Z" style="fill:#4CAF4F"></path><path d="M188.82,383.2c.51.41.35,54-.32,57.22s-14.24,6-19.29,6.8-43.86,1.62-45.77,9.58,8.39,6.12,8.39,6.12l79.34-9.35.37-67.77Z" style="opacity:0.30000000000000004"></path><path d="M94.46,197.77c-.41.16-21.22,13.47-23.06,16.26s-1.15,6.44-2.14,8S53.91,236.91,54,240.41s2.88,10.94,5,12.63,8.52,4,11.33,2.17,10.13-6.67,10.13-6.67h0c.66,2.37,2.62,3.45,5.27,3.25.32,0,.8,0,1.15,0a14.45,14.45,0,0,1,5.07.73s4.56,5.06,5.51,11.51-1.74,9.66,2.83,19.91,23.1,26.68,23.1,26.68S136.05,325.89,142.9,329a72.58,72.58,0,0,1,11.17,6.22L159.32,348s7.4,29.45,11.74,30.88,16.51,3.31,16.51,3.31l10,8s27.54,9.4,35.12,7.06c0,0,3,9.26,14.67,6.24s15.67-22,15.67-22,5.46-.25,7.5,10.82,11.58,33.26,17.56,41.42,16.53,25.58,37.81,26.54,134.18.75,134.18.75,5.19-.82,4.08-2.64-2.09-2.54-7.55-2.43-64.53-7.22-72.8-7.12-50.56-1.12-55.72-3.81-19.81-14-23.68-23.39-4.93-21.17-3.48-29.29,2.45-14,1.79-20-1.84-22.42-4.61-28.32-10.32-32.41-14.63-39.16-28-34.05-43.61-41.56-31.15-15.16-61-13.22-44.25-3.33-46.2-4.74-9.91-7.2-12.24-15.9-5.23-16.41-8.71-20.07-10-11.54-10-11.54S97.69,196.53,94.46,197.77Z" style="fill:#4CAF4F"></path><path d="M304.47,421.64c3.87,9.41,18.52,20.7,23.68,23.39s47.47,3.9,55.73,3.81,67.33,7.23,72.8,7.12,6.44.6,7.55,2.43-4.08,2.64-4.08,2.64-112.9.21-134.18-.75-31.83-18.38-37.81-26.54-15.52-30.34-17.56-41.42l16.08,12.05-13.53-14.31,27.36,23.57L291,408.46Z" style="fill:#fff;opacity:0.4"></path><path d="M98.26,203.71s.66-7.06,6.51-10.75,28.36-14.36,28.36-14.36l5.85-3.32s-1.53,7.81-4.4,11.89-8,5.91-9.48,9.12-2.52,5.82-4.51,7.55-13.2,7.49-13.2,7.49Z" style="fill:#4CAF4F"></path><g style="opacity:0.4"><path d="M64.64,244.66l17.3-2.29c2.61-.34,5.36-.67,7.79.32s4,2.9,5.56,4.8a52.81,52.81,0,0,1,5.22,7,17.72,17.72,0,0,1,2.67,8.22,20.06,20.06,0,0,1-1.64,8.1,41.61,41.61,0,0,1-3,6.18,5.44,5.44,0,0,1-1.08-3.36c0-2.16.23-7.14,0-8.56a21.1,21.1,0,0,0-.59-3.47,24.13,24.13,0,0,0-2.16-5c-1-1.7-2.77-4.08-2.77-4.08a18,18,0,0,0-6.54-.74c-4.28.15-5.07-3.25-5.07-3.25s-9.38,6.74-10.88,7.07a10.22,10.22,0,0,1-7.16-.79s-3.7-1.14-5-3.93-2-4.67-2-4.67Z" style="fill:#fff"></path></g><path d="M106.73,228.33a5.1,5.1,0,0,1,.6,2,13.37,13.37,0,0,1-.11,5,13.53,13.53,0,0,1-1.93,4.59,5.35,5.35,0,0,1-1.35,1.54,16.57,16.57,0,0,0,2.79-13.06Z" style="fill:#263238"></path><path d="M133.86,180.81a9.16,9.16,0,0,1-1.06,1.13c-.71.71-1.78,1.68-3.15,2.83-2.71,2.33-6.74,5.2-10.74,8.86a31.74,31.74,0,0,0-8.1,11.08,26,26,0,0,0-1.43,5.54s0-.14,0-.4a10.19,10.19,0,0,1,.09-1.15,17.49,17.49,0,0,1,1-4.13,30.5,30.5,0,0,1,8.09-11.32c4-3.7,8.1-6.51,10.86-8.76,1.39-1.11,2.49-2,3.24-2.69A8.41,8.41,0,0,1,133.86,180.81Z" style="fill:#263238"></path><path d="M120.24,302.2l2.62,20.6-12.57,27.52a12.79,12.79,0,0,0-1,7.42l1.48,8.9s-3.36,13.1-.08,14,7.11-1.78,8.06-7.6-.32-8.2-.32-8.2l-.64-8.35s12.18-22.84,15.48-26.46,12-9.42,13.66-13.54,1.53-13.06,1.93-19.43a18.68,18.68,0,0,1-7.23-11" style="fill:#4CAF4F"></path><path d="M259.47,298.89s-29.5-12.23-40.21-7.12S193,312.65,193.88,330.58s7.67,110,7.67,110,.29,9.31-6.26,10l-63.43,6.09s-5.78,3.12,0,6.29,16.11,1.4,16.11,1.4l72.75-1.43s3.67-.77,4.75-5.74-3-25.44-3-25.44-3-28.87-.45-34.88,2-11.51,7.82-17.24,15.22-3.33,29.33-19.76S264,303.51,259.47,298.89Z" style="fill:#4CAF4F"></path><path d="M222,396.83c-2.51,6,.45,34.88.45,34.88s4.08,20.47,3,25.44-4.75,5.74-4.75,5.74l-72.75,1.43s-10.36,1.78-16.11-1.4,0-6.29,0-6.29l63.43-6.09c6.55-.65,6.26-10,6.26-10S198,395.37,197,377.44l11.31,8.63-7.3-13.4,19.28,18.8-7.53-5.73Z" style="fill:#fff;opacity:0.4"></path><path d="M214.65,416.36a6.44,6.44,0,0,1-.31-1.39c-.17-.9-.38-2.22-.62-3.84-.46-3.25-1-7.77-1.31-12.77s-.41-9.55-.37-12.83c0-1.64.06-3,.11-3.89a7.06,7.06,0,0,1,.13-1.42,8,8,0,0,1,.07,1.42c0,1,0,2.32.06,3.89.06,3.28.19,7.8.52,12.8s.78,9.49,1.16,12.75c.18,1.56.33,2.85.45,3.86A8.76,8.76,0,0,1,214.65,416.36Z" style="fill:#263238"></path><path d="M215.7,454.59c-.07,0,.35-.67.77-1.77a10.63,10.63,0,0,0-.65-8.88c-.57-1-1.07-1.59-1-1.65a4.19,4.19,0,0,1,1.33,1.46,9.7,9.7,0,0,1,1.49,4.52,9.54,9.54,0,0,1-.82,4.69A4.26,4.26,0,0,1,215.7,454.59Z" style="fill:#263238"></path><path d="M228.66,288.32l-.27,0-.78.08a21.65,21.65,0,0,0-3,.54,29.16,29.16,0,0,0-10.22,4.88c-4,2.83-8,7.22-11.9,12.57-1.93,2.71-4.33,5.36-5.57,8.83a48.17,48.17,0,0,0-2.7,11.11v0c-.2,6.95-.18,14.49.12,22.29.38,10.68,1.27,20.82,2.1,30s1.66,17.51,2.31,24.49,1.08,12.62,1.36,16.53c.13,1.93.23,3.44.29,4.49,0,.5,0,.89.07,1.18a2,2,0,0,1,0,.4,2.23,2.23,0,0,1-.06-.4c0-.29-.06-.67-.11-1.17-.09-1.05-.22-2.56-.39-4.49-.34-3.9-.84-9.54-1.52-16.51L196,378.72c-.86-9.22-1.77-19.37-2.15-30.06-.31-7.81-.31-15.36-.09-22.32h0a47.79,47.79,0,0,1,2.76-11.24,20.64,20.64,0,0,1,2.59-4.79l3.07-4.12c4-5.34,8-9.74,12.06-12.56a28.84,28.84,0,0,1,10.36-4.8,21.19,21.19,0,0,1,3-.46l.79,0Z" style="fill:#263238"></path><path d="M230.22,361.37a1.7,1.7,0,0,1-.13.48c-.12.36-.27.81-.46,1.34-.41,1.16-1,2.84-1.66,4.93a141.54,141.54,0,0,0-6.58,33.59c-.16,2.19-.26,4-.31,5.19,0,.57-.06,1-.09,1.42a1.61,1.61,0,0,1-.06.49,1.72,1.72,0,0,1,0-.49c0-.39,0-.86,0-1.42,0-1.23,0-3,.15-5.21a127.34,127.34,0,0,1,2.13-17.08A125.47,125.47,0,0,1,227.62,368c.72-2.08,1.35-3.74,1.82-4.88l.55-1.31A1.93,1.93,0,0,1,230.22,361.37Z" style="fill:#263238"></path><g style="opacity:0.4"><path d="M179.12,324.09c-5.72-3.39-13-1.34-19.29.76s-12.45,4-19.5,2.67h0a16.59,16.59,0,0,0,2.51,1.49A72.58,72.58,0,0,1,154,335.23L159.27,348s7.4,29.45,11.73,30.88,16.51,3.31,16.51,3.31l9.56,7.61c-1.87-18.41-3.41-38.4-10.19-54.95C185.18,330.68,183,326.38,179.12,324.09Z" style="fill:#fff"></path></g><path d="M54.13,239.66c1.14-1.75,3.67-2.18,5.73-2.52a6.61,6.61,0,0,1,5.8,1.58c1.45,1.5,1.67,4.2.12,5.6-1.15,1-2.84,1.12-4.21,1.81-1,.52-1.85,1.38-2.88,1.88a2.18,2.18,0,0,1-2.86-.43,8,8,0,0,1-.88-2.16C54.81,244.53,53.19,241.11,54.13,239.66Z" style="fill:#263238"></path><path d="M86.38,245.77a18.36,18.36,0,0,0-4.17,1.73,31.93,31.93,0,0,0-4,2.84A52.56,52.56,0,0,1,73.36,254a13.87,13.87,0,0,1-5.73,2.15,7.87,7.87,0,0,1-4.9-1,6.23,6.23,0,0,1-2.39-2.37A4,4,0,0,1,60,252c-.05-.21-.08-.31-.06-.32s.17.41.59,1.06a6.43,6.43,0,0,0,2.39,2.16,7.71,7.71,0,0,0,4.67.81,13.7,13.7,0,0,0,5.5-2.11c1.8-1.13,3.36-2.45,4.84-3.59A28.54,28.54,0,0,1,82,247.18a12.91,12.91,0,0,1,3.13-1.24A3.82,3.82,0,0,1,86.38,245.77Z" style="fill:#263238"></path><path d="M126.42,194.47a2.22,2.22,0,0,1,.25-.38,9.79,9.79,0,0,1,.9-1,47.28,47.28,0,0,1,3.81-3.11,13.62,13.62,0,0,0,2.53-2.28,20.43,20.43,0,0,0,2-3.48,38.06,38.06,0,0,0,1.68-4.21,43.54,43.54,0,0,0,1.19-4.82l.35.26-11.42,5.82L115,187.74c-1,.5-1.93,1-2.88,1.39s-1.83.88-2.69,1.33a35.1,35.1,0,0,0-4.61,2.77,17.08,17.08,0,0,0-3.27,3A13.18,13.18,0,0,0,99.73,199c-.74,1.68-1,2.69-1,2.67a4.12,4.12,0,0,1,.16-.73,15.81,15.81,0,0,1,.68-2,12.63,12.63,0,0,1,1.74-2.91,17.49,17.49,0,0,1,3.28-3.07,36.14,36.14,0,0,1,4.63-2.85c.86-.46,1.76-.92,2.69-1.36s1.9-.91,2.87-1.41l12.68-6.46,11.43-5.79.45-.22-.1.48A44,44,0,0,1,138,180.2a37,37,0,0,1-1.74,4.24,19.59,19.59,0,0,1-2.05,3.53,6.93,6.93,0,0,1-1.31,1.29c-.46.37-.9.69-1.32,1-1.7,1.24-3,2.23-3.88,3S126.45,194.49,126.42,194.47Z" style="fill:#263238"></path><g style="opacity:0.30000000000000004"><path d="M109.75,208a258.12,258.12,0,0,0,19-19.14c2.87-3.1,5.78-6.25,7.65-10a146.89,146.89,0,0,0-15.27,12.38c-4.71,4.57-10.07,9.47-11.39,16.79"></path></g><circle cx="84.88" cy="223.83" r="2.71" transform="translate(-53.56 28.54) rotate(-14.57)" style="fill:#263238"></circle><path d="M90.05,224.32a15.37,15.37,0,0,1-1.41-1.25A10,10,0,0,0,87,221.94a4.15,4.15,0,0,0-2.27-.54,3.51,3.51,0,0,0-2.09,1,8.47,8.47,0,0,0-1.28,1.52,10.22,10.22,0,0,1-1.06,1.57,5,5,0,0,1,.75-1.76A7.27,7.27,0,0,1,82.3,222a3.82,3.82,0,0,1,2.38-1.13,4.38,4.38,0,0,1,2.54.64,8.17,8.17,0,0,1,1.66,1.28A4.35,4.35,0,0,1,90.05,224.32Z" style="fill:#263238"></path><g style="opacity:0.30000000000000004"><path d="M104.93,240.18l-1.3,2.37c3-.27,5.41-3.08,5.84-6.08a11.58,11.58,0,0,0-2.64-8.45,20.61,20.61,0,0,1-1.93,12.19"></path></g><path d="M143.54,281.13a24.32,24.32,0,0,0,.16,4.53,17.23,17.23,0,0,0,1.52,4.89,16.63,16.63,0,0,0,3.89,5.25l.09.07V296c-.25,3.58-.53,7.61-.82,11.86q-.21,2.92-.42,5.69a13.65,13.65,0,0,1-.43,2.72,7.41,7.41,0,0,1-1.2,2.4,18,18,0,0,1-3.53,3.33c-1.18.93-2.26,1.82-3.24,2.64-2,1.65-3.5,3-4.57,4l-1.24,1.08a2.7,2.7,0,0,1-.46.36,2.31,2.31,0,0,1,.38-.43l1.18-1.16c1-1,2.54-2.42,4.47-4.11,1-.84,2-1.75,3.22-2.7a18.13,18.13,0,0,0,3.41-3.28,8.73,8.73,0,0,0,1.51-4.87q.2-2.76.4-5.69c.31-4.24.61-8.27.87-11.85l.08.19a17,17,0,0,1-3.94-5.43,17.24,17.24,0,0,1-1.44-5,15.82,15.82,0,0,1-.07-3.38c0-.39.09-.69.12-.89A.94.94,0,0,1,143.54,281.13Z" style="fill:#263238"></path><path d="M115.87,291.24a6.12,6.12,0,0,1,.59,1.13c.36.75.83,1.85,1.36,3.23a70.24,70.24,0,0,1,4.57,22.51c0,1.48,0,2.67,0,3.5a6.35,6.35,0,0,1-.1,1.27,5.91,5.91,0,0,1-.11-1.27c0-.83-.08-2-.17-3.48a84.58,84.58,0,0,0-1.5-11.36,83.84,83.84,0,0,0-3-11c-.48-1.38-.9-2.5-1.19-3.27A6.08,6.08,0,0,1,115.87,291.24Z" style="fill:#263238"></path><g style="opacity:0.30000000000000004"><path d="M193.86,346.24c.6-8.17-1.88-16.31-1.5-24.49a37.21,37.21,0,0,1,15.34-27.89A40.84,40.84,0,0,1,239,287.15c-10.15-.95-20.37,2.83-28.25,9.3-5,4.09-9.11,10-12.25,15.66a32.69,32.69,0,0,0-4.34,18.55"></path></g><g style="opacity:0.30000000000000004"><path d="M221.88,396.9a74.22,74.22,0,0,0,6-14.84c1.69-5.38,3.34-12.42,1.62-17.79-4.13,9.66-7.36,22-7.64,32.63"></path></g><g style="opacity:0.30000000000000004"><path d="M288.69,397a8,8,0,0,1-1.88-.95c-1.12-.64-2.63-1.59-4.26-2.71s-3.05-2.21-4.06-3a8.24,8.24,0,0,1-1.55-1.42c.1-.12,2.67,1.78,5.91,4S288.77,396.89,288.69,397Z" style="fill:#fff"></path></g><g style="opacity:0.30000000000000004"><path d="M290.34,394.31a14.44,14.44,0,0,1-2.38-1.69c-1.42-1.12-3.32-2.72-5.34-4.6s-3.74-3.67-4.95-5a14.74,14.74,0,0,1-1.86-2.26,17.24,17.24,0,0,1,2.12,2c1.28,1.27,3,3,5.05,4.88s3.86,3.51,5.22,4.7A17.92,17.92,0,0,1,290.34,394.31Z" style="fill:#fff"></path></g><g style="opacity:0.30000000000000004"><path d="M217.3,381.08a8.45,8.45,0,0,1-1.76-1.36,38.25,38.25,0,0,1-3.72-3.86,37.29,37.29,0,0,1-3.13-4.35,8.28,8.28,0,0,1-1-2c.14-.08,1.88,2.81,4.55,6S217.41,381,217.3,381.08Z" style="fill:#fff"></path></g><g style="opacity:0.30000000000000004"><path d="M219.69,379.38a9.07,9.07,0,0,1-1.56-1.56c-.9-1-2.11-2.46-3.37-4.12s-2.33-3.2-3.07-4.34a9.36,9.36,0,0,1-1.1-1.92,9.53,9.53,0,0,1,1.4,1.71l3.19,4.24c1.19,1.55,2.28,2.95,3.24,4.19A9.58,9.58,0,0,1,219.69,379.38Z" style="fill:#fff"></path></g><g style="opacity:0.30000000000000004"><path d="M178,320.25c0,.15-2.66-.25-5.93-.31s-5.92.25-5.95.09a18.83,18.83,0,0,1,6-.61A18.59,18.59,0,0,1,178,320.25Z" style="fill:#fff"></path></g><g style="opacity:0.30000000000000004"><path d="M181.89,319.17c-.06.14-2.78-1-6.32-1.75s-6.5-.81-6.5-1a6.05,6.05,0,0,1,2-.11,27,27,0,0,1,9.14,1.94A6,6,0,0,1,181.89,319.17Z" style="fill:#fff"></path></g><g style="opacity:0.30000000000000004"><path d="M103.65,274.22a72,72,0,0,0,1.1-7.92,69.92,69.92,0,0,0-.37-8,8.25,8.25,0,0,1,.57,2.3,28.15,28.15,0,0,1,.32,5.71,28.8,28.8,0,0,1-.84,5.67A8.65,8.65,0,0,1,103.65,274.22Z" style="fill:#fff"></path></g><g style="opacity:0.30000000000000004"><path d="M106,270.07a29,29,0,0,1,.81-3.76,30.07,30.07,0,0,1,.78-3.76,14,14,0,0,1-1.59,7.52Z" style="fill:#fff"></path></g><g style="opacity:0.30000000000000004"><path d="M70.05,223.88c.1.11-2.28,2.19-5,4.93s-4.82,5.11-4.94,5a7.93,7.93,0,0,1,1.21-1.68,47.83,47.83,0,0,1,3.37-3.7c1.38-1.38,2.71-2.55,3.7-3.36A6.89,6.89,0,0,1,70.05,223.88Z" style="fill:#fff"></path></g><g style="opacity:0.30000000000000004"><path d="M73.62,214.36c.11.11-.66,1-1.23,2.25s-.74,2.41-.9,2.4a3.82,3.82,0,0,1,.43-2.62C72.54,215,73.53,214.25,73.62,214.36Z" style="fill:#fff"></path></g><g style="opacity:0.30000000000000004"><path d="M221,294.18c0,.09-1.48.77-3.78,2.16a44.18,44.18,0,0,0-8.25,6.44,44.78,44.78,0,0,0-6.46,8.23c-1.39,2.29-2.08,3.82-2.17,3.78a5.19,5.19,0,0,1,.42-1.1,26.68,26.68,0,0,1,1.43-2.87A39.34,39.34,0,0,1,217,296a28.72,28.72,0,0,1,2.87-1.43A6,6,0,0,1,221,294.18Z" style="fill:#fff"></path></g><g style="opacity:0.30000000000000004"><path d="M218,298.65c.05.14-1.52.75-3.26,1.84s-3,2.21-3.09,2.11a7.84,7.84,0,0,1,2.82-2.55A7.76,7.76,0,0,1,218,298.65Z" style="fill:#fff"></path></g><g style="opacity:0.30000000000000004"><path d="M123,313.47a22.88,22.88,0,0,1-.13-3,61.35,61.35,0,0,0-.68-7,60.4,60.4,0,0,0-1.55-6.92,25.9,25.9,0,0,1-.79-2.84,12.17,12.17,0,0,1,1.14,2.73,42.87,42.87,0,0,1,2.24,14.08A12.57,12.57,0,0,1,123,313.47Z" style="fill:#fff"></path></g><g style="opacity:0.30000000000000004"><path d="M124,299.73c-.15,0-.78-2.49-1.83-5.51s-2.11-5.39-2-5.46a20.4,20.4,0,0,1,2.46,5.29A20.11,20.11,0,0,1,124,299.73Z" style="fill:#fff"></path></g><path d="M147.1,348.66S139,354.34,138,355.8s.21,5.48,0,7.43-4.32,8.46-4.57,9.64a8.11,8.11,0,0,0,1.25,6.08c2.07,2.6,5,2.21,7.24,1.49a37.78,37.78,0,0,0,6.6-2.89c4.15-2.05,11.1-2.86,13.18-3.95s4.82-2.24,4.82-2.24l-.22-14.31s4.77-3.14,6.87-7.51,4.68-9.48,4.68-9.48-5.35-1.25-9.75-.06a91.49,91.49,0,0,0-10.51,3.94l-2.85-1a21.38,21.38,0,0,0-8.2-7.06c-5.22-2.41-14.85,0-14.85,0a61,61,0,0,0,4.84,5.51C140.05,345.09,147.1,348.66,147.1,348.66Z" style="fill:#4CAF4F"></path><path d="M136.09,378.45a3.62,3.62,0,0,0,3.78-3.83.91.91,0,0,0-.34-.75,1.06,1.06,0,0,0-1,.09,10.2,10.2,0,0,1-2.68.85,3.66,3.66,0,0,1-2.68-.63,7.47,7.47,0,0,0,0,2.71C133.47,378.18,136.09,378.45,136.09,378.45Z" style="fill:#263238"></path><path d="M173.92,340.33c0,.08-1.09.24-2.8.71a15.1,15.1,0,0,0-6.08,3.13,9.34,9.34,0,0,0-3.06,5.94,11.9,11.9,0,0,0,.22,2.85,1.83,1.83,0,0,1-.32-.73,6,6,0,0,1-.27-2.14,9.26,9.26,0,0,1,3.08-6.31,14.11,14.11,0,0,1,6.34-3.09,17.13,17.13,0,0,1,2.11-.35C173.64,340.29,173.92,340.29,173.92,340.33Z" style="fill:#263238"></path><path d="M153.83,361.93a2.12,2.12,0,1,1-2.39-1.8A2.12,2.12,0,0,1,153.83,361.93Z" style="fill:#263238"></path><path d="M155.78,362c-.05.06-.49-.3-1.25-.77a4.61,4.61,0,0,0-3.18-.83,3.8,3.8,0,0,0-2.3,2.26,5.67,5.67,0,0,1-.68,1.3,3.36,3.36,0,0,1,.34-1.45,5.73,5.73,0,0,1,.79-1.46,3,3,0,0,1,1.73-1.16,3.46,3.46,0,0,1,2.07.22,5.92,5.92,0,0,1,1.43.82C155.47,361.51,155.83,362,155.78,362Z" style="fill:#263238"></path><path d="M153.47,344.54c.06.14-1.75,1.07-3.84,2.45s-3.65,2.67-3.75,2.56a12.35,12.35,0,0,1,3.47-3A12.54,12.54,0,0,1,153.47,344.54Z" style="fill:#263238"></path><g style="opacity:0.30000000000000004"><path d="M174.54,341.22a2.62,2.62,0,0,0-1.27-.27c-5.3-.09-9.36,2.16-10.82,7.26a7.4,7.4,0,0,0-.27,3.33,2.54,2.54,0,0,0,2.29,2.11A3.76,3.76,0,0,0,167,352l3.27-3.85-3.73.72,7.88-5.82a1.53,1.53,0,0,0,.61-.7A1,1,0,0,0,174.54,341.22Z"></path></g><g style="opacity:0.30000000000000004"><path d="M148.6,362.77a.5.5,0,0,1-.74.08,1.09,1.09,0,0,1-.34-.75A3.58,3.58,0,0,1,149,359a6.18,6.18,0,0,1,3.36-1.13,2.79,2.79,0,0,1,1.82.39,1.15,1.15,0,0,1,.24,1.65c-.45.42-1.16.25-1.77.19a4.07,4.07,0,0,0-4,2.7"></path></g><path d="M154,375.51a17.35,17.35,0,0,1-2.72,1.32c-1.7.75-4.07,1.76-6.7,2.84-1.32.53-2.53,1.09-3.75,1.46a4.31,4.31,0,0,1-3.33-.22,3.89,3.89,0,0,1-1.63-1.56,1.67,1.67,0,0,1-.28-.78s.15.26.45.67a4,4,0,0,0,4.65,1.43c1.14-.37,2.38-1,3.7-1.48,2.62-1.08,5-2,6.75-2.7A19,19,0,0,1,154,375.51Z" style="fill:#263238"></path><path d="M165.43,365.63a3.92,3.92,0,0,1-.1,1.91,8.43,8.43,0,0,1-6.22,6.33,3.86,3.86,0,0,1-1.9.13c0-.08.71-.14,1.8-.49a9.28,9.28,0,0,0,3.74-2.28,9.49,9.49,0,0,0,2.22-3.78C165.3,366.35,165.34,365.63,165.43,365.63Z" style="fill:#263238"></path><path d="M171.17,357.91a13.47,13.47,0,0,1,.32,2.82c.11,1.74.18,4.16.11,6.83s-.27,5.08-.48,6.82a13.12,13.12,0,0,1-.47,2.79,16.41,16.41,0,0,1,.1-2.83c.11-1.74.25-4.14.33-6.79s.06-5.07,0-6.81A19.12,19.12,0,0,1,171.17,357.91Z" style="fill:#263238"></path><path d="M178.18,350.79a4,4,0,0,1,.11,1c0,.67,0,1.64,0,2.84a50.79,50.79,0,0,1-4,18.16c-.47,1.1-.89,2-1.21,2.56a3.85,3.85,0,0,1-.53.89c-.08,0,.54-1.37,1.4-3.59a61.23,61.23,0,0,0,4-18C178.09,352.27,178.1,350.79,178.18,350.79Z" style="fill:#263238"></path><g style="opacity:0.30000000000000004"><path d="M82,223.19a1.31,1.31,0,0,1-1.29-.2,2,2,0,0,1-.66-1.15,3.17,3.17,0,0,1,1-2.8,6.27,6.27,0,0,1,2.77-1.36,5.76,5.76,0,0,1,3.95.14,2.86,2.86,0,0,1,1.62,3.32,1.36,1.36,0,0,1-.89.9c-.58.14-1.13-.27-1.67-.53a3.93,3.93,0,0,0-5,1.56"></path></g><path d="M143.75,359.48c.15,0,.26.83.25,1.86s-.12,1.86-.27,1.86-.25-.84-.25-1.86S143.61,359.48,143.75,359.48Z" style="fill:#263238"></path><path d="M147.59,355.56a31.92,31.92,0,0,0-1.71,3.44,35.05,35.05,0,0,0-.83,3.77,6.42,6.42,0,0,1,.33-3.94A6.27,6.27,0,0,1,147.59,355.56Z" style="fill:#263238"></path></g></svg>