<svg xmlns="http://www.w3.org/2000/svg" viewBox="0 0 750 500"><g id="freepik--background-simple--inject-32"><path d="M632.12,140S529.34,34.72,395.77,26.59,184.31,104.75,147.4,156.21s-129,137.2-118.14,215.71S146.59,510,299.11,483.83s196.74-36.1,266.23-16.24,159.74-9.93,161.54-122.74S632.12,140,632.12,140Z" style="fill:#4CAF4F"></path><path d="M632.12,140S529.34,34.72,395.77,26.59,184.31,104.75,147.4,156.21s-129,137.2-118.14,215.71S146.59,510,299.11,483.83s196.74-36.1,266.23-16.24,159.74-9.93,161.54-122.74S632.12,140,632.12,140Z" style="fill:#fff;opacity:0.7000000000000001"></path></g><g id="freepik--Floor--inject-32"><line x1="673.74" y1="443.29" x2="721.75" y2="443.29" style="fill:none;stroke:#263238;stroke-linecap:round;stroke-linejoin:round"></line><line x1="65.39" y1="443.29" x2="662.73" y2="443.29" style="fill:none;stroke:#263238;stroke-linecap:round;stroke-linejoin:round"></line><line x1="42.57" y1="443.29" x2="56.74" y2="443.29" style="fill:none;stroke:#263238;stroke-linecap:round;stroke-linejoin:round"></line></g><g id="freepik--Promotion--inject-32"><path d="M653.5,328.48h0a6.39,6.39,0,0,0,7.71-4.69L665.29,307a6.39,6.39,0,0,0-4.69-7.71h0a6.38,6.38,0,0,0-7.7,4.69l-4.09,16.77A6.38,6.38,0,0,0,653.5,328.48Z" style="fill:#fff;stroke:#263238;stroke-linecap:round;stroke-linejoin:round"></path><path d="M660,348.09h0a3.79,3.79,0,0,0,4.8-3.52l1.69-21.09a5.57,5.57,0,0,0-4.06-5.68h0a3.79,3.79,0,0,0-4.8,3.53l-1.7,21.08A5.56,5.56,0,0,0,660,348.09Z" style="fill:#fff;stroke:#263238;stroke-linecap:round;stroke-linejoin:round"></path><path d="M614.92,324.77l21.31-4.43a86.93,86.93,0,0,1,22.27,2.44l14.32,3.48a5.89,5.89,0,0,0,7.12-4.33l3-12.34a5.9,5.9,0,0,0-4.34-7.12L667,299.65a86.41,86.41,0,0,1-24.86-10.36L627,275Z" style="fill:#fff;stroke:#263238;stroke-linecap:round;stroke-linejoin:round"></path><path d="M659,297.27c2.64.92,5.31,1.72,8,2.38l11.58,2.82a5.9,5.9,0,0,1,4.34,7.12l-3,12.34a5.89,5.89,0,0,1-7.12,4.33l-14.32-3.48q-2.68-.66-5.42-1.14Z" style="fill:#263238;stroke:#263238;stroke-linecap:round;stroke-linejoin:round"></path><rect x="614.68" y="269.66" width="10.37" height="62.22" rx="4.73" transform="translate(1151.03 739.59) rotate(-166.32)" style="fill:#4CAF4F;stroke:#263238;stroke-linecap:round;stroke-linejoin:round"></rect><line x1="604.13" y1="279.15" x2="609.13" y2="287.04" style="fill:none;stroke:#263238;stroke-linecap:round;stroke-linejoin:round;stroke-width:2px"></line><line x1="596.08" y1="312.24" x2="604.14" y2="307.53" style="fill:none;stroke:#263238;stroke-linecap:round;stroke-linejoin:round;stroke-width:2px"></line><line x1="604.88" y1="297.37" x2="595.09" y2="294.99" style="fill:none;stroke:#263238;stroke-linecap:round;stroke-linejoin:round;stroke-width:2px"></line><path d="M656,340l-3.43,2.92a2.57,2.57,0,0,0-.81,1.33h0a2.53,2.53,0,0,0,1.86,3.07l10.83,2.64.68-9.9Z" style="fill:#263238;stroke:#263238;stroke-linecap:round;stroke-linejoin:round"></path><path d="M673.53,310.25a1.49,1.49,0,1,1,1.1,1.81A1.48,1.48,0,0,1,673.53,310.25Z" style="fill:#4CAF4F"></path><path d="M609.9,374.51V362h3.67a3.65,3.65,0,0,1,1.83.41,2.5,2.5,0,0,1,1,1.21,5,5,0,0,1,.33,1.92,4.15,4.15,0,0,1-.41,2,2.45,2.45,0,0,1-1.17,1.08,4.16,4.16,0,0,1-1.76.34h-1.24v5.55Zm2.28-7.15h.87a2.1,2.1,0,0,0,1-.18.92.92,0,0,0,.48-.57,3.32,3.32,0,0,0,.13-1.05,4.74,4.74,0,0,0-.1-1.1.94.94,0,0,0-.43-.63,2.12,2.12,0,0,0-1-.2h-.87Z" style="fill:#263238"></path><path d="M618,374.51V362h3a6.61,6.61,0,0,1,2.14.3,2.43,2.43,0,0,1,1.32,1,3.65,3.65,0,0,1,.46,2,6.15,6.15,0,0,1-.14,1.35,2.63,2.63,0,0,1-.47,1,2.11,2.11,0,0,1-.92.65l1.74,6.15H622.8l-1.51-5.72h-1v5.72Zm2.29-7.15h.7a2.39,2.39,0,0,0,1.06-.19,1.14,1.14,0,0,0,.56-.62,2.8,2.8,0,0,0,.17-1.09,2.41,2.41,0,0,0-.34-1.41,1.59,1.59,0,0,0-1.32-.47h-.83Z" style="fill:#263238"></path><path d="M629.94,374.68a3.92,3.92,0,0,1-2.11-.49,2.72,2.72,0,0,1-1.13-1.42,6.54,6.54,0,0,1-.34-2.19v-4.67a6.28,6.28,0,0,1,.34-2.16,2.67,2.67,0,0,1,1.13-1.38,4.92,4.92,0,0,1,4.24,0,2.71,2.71,0,0,1,1.13,1.38,6,6,0,0,1,.35,2.16v4.69a6.11,6.11,0,0,1-.35,2.16,2.81,2.81,0,0,1-1.13,1.42A4,4,0,0,1,629.94,374.68Zm0-1.68a1.19,1.19,0,0,0,.84-.25,1.21,1.21,0,0,0,.36-.67,4.62,4.62,0,0,0,.09-.94v-5.75a4.48,4.48,0,0,0-.09-.94,1.19,1.19,0,0,0-.36-.66,1.56,1.56,0,0,0-1.66,0,1.2,1.2,0,0,0-.37.66,4.48,4.48,0,0,0-.09.94v5.75a4.62,4.62,0,0,0,.09.94,1.1,1.1,0,0,0,.36.67A1.18,1.18,0,0,0,629.94,373Z" style="fill:#263238"></path><path d="M635.19,374.51l.22-12.48h2.36l1.77,8.64,1.85-8.64h2.28l.23,12.48h-1.69l-.19-8.68-1.77,8.68h-1.37l-1.81-8.71-.16,8.71Z" style="fill:#263238"></path><path d="M649.14,374.68a3.92,3.92,0,0,1-2.11-.49,2.7,2.7,0,0,1-1.12-1.42,6.3,6.3,0,0,1-.34-2.19v-4.67a6,6,0,0,1,.34-2.16,2.65,2.65,0,0,1,1.12-1.38,4,4,0,0,1,2.11-.48,4.06,4.06,0,0,1,2.14.48,2.7,2.7,0,0,1,1.12,1.38,6,6,0,0,1,.35,2.16v4.69a6.11,6.11,0,0,1-.35,2.16,2.79,2.79,0,0,1-1.12,1.42A4,4,0,0,1,649.14,374.68Zm0-1.68a1.19,1.19,0,0,0,.84-.25,1.21,1.21,0,0,0,.36-.67,4,4,0,0,0,.1-.94v-5.75a3.87,3.87,0,0,0-.1-.94,1.19,1.19,0,0,0-.36-.66,1.24,1.24,0,0,0-.84-.24,1.19,1.19,0,0,0-.81.24,1.14,1.14,0,0,0-.37.66,3.87,3.87,0,0,0-.1.94v5.75a4.62,4.62,0,0,0,.09.94,1.16,1.16,0,0,0,.36.67A1.19,1.19,0,0,0,649.14,373Z" style="fill:#263238"></path><path d="M655.62,374.51v-10.8h-2V362h6.22v1.68h-2v10.8Z" style="fill:#263238"></path><path d="M661.06,374.51V362h2.25v12.48Z" style="fill:#263238"></path><path d="M668.62,374.68a4,4,0,0,1-2.11-.49,2.7,2.7,0,0,1-1.12-1.42,6.3,6.3,0,0,1-.34-2.19v-4.67a6,6,0,0,1,.34-2.16,2.65,2.65,0,0,1,1.12-1.38,4.94,4.94,0,0,1,4.25,0,2.7,2.7,0,0,1,1.12,1.38,6,6,0,0,1,.35,2.16v4.69a6.11,6.11,0,0,1-.35,2.16,2.79,2.79,0,0,1-1.12,1.42A4,4,0,0,1,668.62,374.68Zm0-1.68a1.19,1.19,0,0,0,.84-.25,1.29,1.29,0,0,0,.37-.67,4.62,4.62,0,0,0,.09-.94v-5.75a4.48,4.48,0,0,0-.09-.94,1.26,1.26,0,0,0-.37-.66,1.24,1.24,0,0,0-.84-.24,1.19,1.19,0,0,0-.81.24,1.14,1.14,0,0,0-.37.66,3.87,3.87,0,0,0-.1.94v5.75a4.62,4.62,0,0,0,.09.94,1.16,1.16,0,0,0,.36.67A1.19,1.19,0,0,0,668.62,373Z" style="fill:#263238"></path><path d="M673.91,374.51V362h1.59l3,7.12V362h1.88v12.48H678.9l-3-7.46v7.46Z" style="fill:#263238"></path></g><g id="freepik--Quality--inject-32"><polygon points="671.66 196.1 666.85 192.42 661.09 188.01 644.94 175.65 644.94 175.64 644.92 175.63 644.8 175.54 627.23 188.26 621.19 192.62 616.26 196.2 627.62 136.62 633.03 108.26 653.01 108.68 654.5 108.71 655.66 108.73 660.43 134.76 671.66 196.1" style="fill:#4CAF4F;stroke:#263238;stroke-linecap:round;stroke-linejoin:round"></polygon><path d="M660.43,134.76a3.93,3.93,0,0,0-2.24-.07c-1,.54-1.26,2.9-2.36,3.32s-2.84-1.16-4-.85-1.84,2.57-3,2.76-2.54-1.74-3.72-1.67-2.33,2.13-3.51,2.07-2.15-2.22-3.3-2.4-2.74,1.6-3.86,1.31-1.64-2.62-2.73-3-3,1-4,.46l-.07,0L633,108.26l20,.42,1.49,0,1.16,0Z" style="fill:#263238;stroke:#263238;stroke-linecap:round;stroke-linejoin:round"></path><path d="M610.74,97.73c.06-1.19-1.87-2.56-1.69-3.71s2.43-1.9,2.72-3-1.3-2.89-.89-4,2.78-1.34,3.3-2.39-.67-3.09,0-4.07,3-.74,3.72-1.65,0-3.16.81-4,3.08-.1,4-.85.64-3.09,1.62-3.74,3,.54,4.07,0,1.26-2.9,2.36-3.33,2.85,1.16,4,.85,1.83-2.56,3-2.75,2.54,1.73,3.72,1.67,2.32-2.13,3.51-2.07,2.15,2.22,3.29,2.39,2.74-1.59,3.86-1.3,1.64,2.62,2.73,3,3-1,4-.46,1,2.89,2,3.53,3.14-.35,4.05.39.42,3,1.26,3.88,3.14.31,3.88,1.22-.22,3.07.43,4.05,3,.95,3.55,2-.86,2.95-.43,4,2.75,1.56,3.06,2.7-1.46,2.7-1.27,3.87,2.36,2.09,2.42,3.27-2,2.34-2,3.53,1.87,2.56,1.7,3.71-2.43,1.9-2.73,3,1.3,2.89.89,4-2.77,1.35-3.3,2.39.67,3.09,0,4.08-3,.73-3.73,1.65,0,3.16-.81,4-3.08.1-4,.84-.63,3.1-1.61,3.74-3-.54-4.08,0-1.26,2.89-2.36,3.32-2.85-1.16-4-.85-1.84,2.57-3,2.76-2.53-1.74-3.71-1.67-2.33,2.13-3.52,2.07-2.14-2.22-3.29-2.4-2.74,1.6-3.86,1.3-1.64-2.61-2.73-3-3,1-4.05.47-1-2.9-2-3.53-3.14.34-4-.39-.42-3.06-1.25-3.88-3.15-.31-3.89-1.22.22-3.07-.43-4-3-1-3.55-2,.86-3,.43-4.06-2.74-1.55-3-2.69,1.45-2.71,1.26-3.87-2.36-2.1-2.42-3.28S610.69,98.91,610.74,97.73Z" style="fill:#4CAF4F;stroke:#263238;stroke-linecap:round;stroke-linejoin:round"></path><circle cx="643.28" cy="99.29" r="27.69" transform="translate(0.3 200.5) rotate(-17.72)" style="fill:#263238;stroke:#263238;stroke-linecap:round;stroke-linejoin:round"></circle><circle cx="643.28" cy="99.29" r="24.55" transform="translate(206.35 581.74) rotate(-56.61)" style="fill:#fff;stroke:#263238;stroke-linecap:round;stroke-linejoin:round"></circle><polygon points="625.45 95.5 626.25 97.96 628.84 97.96 626.74 99.48 627.54 101.95 625.45 100.42 623.35 101.95 624.15 99.48 622.06 97.96 624.65 97.96 625.45 95.5" style="fill:#4CAF4F;stroke:#263238;stroke-linecap:round;stroke-linejoin:round;stroke-width:0.5px"></polygon><polygon points="634.33 95.5 635.13 97.96 637.72 97.96 635.63 99.48 636.42 101.95 634.33 100.42 632.24 101.95 633.04 99.48 630.94 97.96 633.53 97.96 634.33 95.5" style="fill:#4CAF4F;stroke:#263238;stroke-linecap:round;stroke-linejoin:round;stroke-width:0.5px"></polygon><polygon points="643.21 95.5 644.01 97.96 646.6 97.96 644.51 99.48 645.31 101.95 643.21 100.42 641.12 101.95 641.92 99.48 639.83 97.96 642.41 97.96 643.21 95.5" style="fill:#4CAF4F;stroke:#263238;stroke-linecap:round;stroke-linejoin:round;stroke-width:0.5px"></polygon><polygon points="652.1 95.5 652.9 97.96 655.49 97.96 653.39 99.48 654.19 101.95 652.1 100.42 650 101.95 650.8 99.48 648.71 97.96 651.3 97.96 652.1 95.5" style="fill:#4CAF4F;stroke:#263238;stroke-linecap:round;stroke-linejoin:round;stroke-width:0.5px"></polygon><polygon points="660.98 95.5 661.78 97.96 664.37 97.96 662.27 99.48 663.08 101.95 660.98 100.42 658.89 101.95 659.69 99.48 657.59 97.96 660.18 97.96 660.98 95.5" style="fill:#4CAF4F;stroke:#263238;stroke-linecap:round;stroke-linejoin:round;stroke-width:0.5px"></polygon><path d="M627.16,223a3.82,3.82,0,0,1-.83-.55,9.66,9.66,0,0,1-.86-.84,8.21,8.21,0,0,1-.73-.93h-.28a3.92,3.92,0,0,1-2.11-.49,2.7,2.7,0,0,1-1.12-1.42,6.3,6.3,0,0,1-.34-2.19V212a6,6,0,0,1,.34-2.16,2.65,2.65,0,0,1,1.12-1.38,4,4,0,0,1,2.11-.48,4.06,4.06,0,0,1,2.14.48,2.67,2.67,0,0,1,1.13,1.38,6,6,0,0,1,.34,2.16v4.69a7.39,7.39,0,0,1-.17,1.62,3.32,3.32,0,0,1-.56,1.25,2.5,2.5,0,0,1-1,.83l.41.44.43.44a3.35,3.35,0,0,0,.42.32Zm-2.7-4a1.07,1.07,0,0,0,1.22-.92,4.62,4.62,0,0,0,.09-.94v-5.75a4.48,4.48,0,0,0-.09-.94,1.2,1.2,0,0,0-.37-.66,1.29,1.29,0,0,0-.85-.24,1.23,1.23,0,0,0-.83.24,1.08,1.08,0,0,0-.36.66,4.48,4.48,0,0,0-.09.94v5.75a4.62,4.62,0,0,0,.09.94,1.16,1.16,0,0,0,.36.68A1.23,1.23,0,0,0,624.46,219Z" style="fill:#263238"></path><path d="M633.18,220.72a3.86,3.86,0,0,1-2.15-.51,2.6,2.6,0,0,1-1.07-1.45,7.73,7.73,0,0,1-.29-2.25v-8.44h2.22v8.71a7.69,7.69,0,0,0,.08,1.1,1.54,1.54,0,0,0,.36.83,1.09,1.09,0,0,0,.85.32,1.1,1.1,0,0,0,.88-.32,1.7,1.7,0,0,0,.35-.83,6.45,6.45,0,0,0,.09-1.1v-8.71h2.2v8.44a7.73,7.73,0,0,1-.29,2.25,2.63,2.63,0,0,1-1.06,1.45A3.89,3.89,0,0,1,633.18,220.72Z" style="fill:#263238"></path><path d="M637.79,220.55l2.5-12.48h2.43l2.5,12.48h-2.11l-.49-2.88h-2.18l-.51,2.88Zm2.88-4.33h1.7l-.85-5.24Z" style="fill:#263238"></path><path d="M646.41,220.55V208.07h2.28V219h3v1.57Z" style="fill:#263238"></path><path d="M652.9,220.55V208.07h2.25v12.48Z" style="fill:#263238"></path><path d="M658.32,220.55v-10.8h-2v-1.68h6.23v1.68h-2v10.8Z" style="fill:#263238"></path><path d="M665.44,220.55v-4.76l-2.53-7.72H665l1.54,5,1.45-5h2.08l-2.5,7.72v4.76Z" style="fill:#263238"></path></g><g id="freepik--customer-loyalty--inject-32"><path d="M419,55.09l3.09,22.64-14.41,3.43a107.21,107.21,0,0,1-12.35,7.21c-5.84,2.74-9.95,3.77-12,3.77s-9.61-3.09-9.61-3.09,5.15-27.79,11-30.88S405.94,50.63,419,55.09Z" style="fill:#fff;stroke:#263238;stroke-linecap:round;stroke-linejoin:round"></path><path d="M345.72,54.3s25.76-1.64,29.53-1.64S387.41,62,387.41,62s15.36,25.57,14.07,27.1c-3.24,3.84-5.83,1.06-5.83,1.06l-.59,2.7s-2.5,3.1-15.19,1.39S363.06,88.71,360,88s-19.73-5.33-19.73-5.33Z" style="fill:#fff;stroke:#263238;stroke-linecap:round;stroke-linejoin:round"></path><line x1="395.65" y1="90.11" x2="391.41" y2="81.93" style="fill:none;stroke:#263238;stroke-linecap:round;stroke-linejoin:round"></line><line x1="391.41" y1="93.9" x2="386.15" y2="84.85" style="fill:none;stroke:#263238;stroke-linecap:round;stroke-linejoin:round"></line><path d="M411.77,57.14S386,49.25,380.9,54.74s-16.13,19.9-13.73,21.62,11-4.81,13-6.18a24.5,24.5,0,0,0,4.12-3.77,19.07,19.07,0,0,0,18.52,4.8" style="fill:#fff;stroke:#263238;stroke-linecap:round;stroke-linejoin:round"></path><path d="M383.47,84.36S381,93.18,382,94.68a3.32,3.32,0,0,0,3.75,1.5,7,7,0,0,0,2.26-1.5s.37-7.5-.75-9.38S385.16,82.11,383.47,84.36Z" style="fill:#fff;stroke:#263238;stroke-linecap:round;stroke-linejoin:round"></path><path d="M376.9,85.49s-2.44,8.82-1.5,10.32a3.33,3.33,0,0,0,3.76,1.5,7.26,7.26,0,0,0,2.25-1.5s.37-7.51-.75-9.38S378.59,83.24,376.9,85.49Z" style="fill:#fff;stroke:#263238;stroke-linecap:round;stroke-linejoin:round"></path><path d="M370.3,85.8s-1.87,6.77-1.15,7.92A2.54,2.54,0,0,0,372,94.87a5.43,5.43,0,0,0,1.73-1.15s.29-5.76-.57-7.2S371.59,84.08,370.3,85.8Z" style="fill:#fff;stroke:#263238;stroke-linecap:round;stroke-linejoin:round"></path><path d="M362.51,86.09s-1.47,4.48-.9,5.24a2.19,2.19,0,0,0,2.26.76,4.38,4.38,0,0,0,1.36-.76s.23-3.81-.45-4.76S363.53,85,362.51,86.09Z" style="fill:#fff;stroke:#263238;stroke-linecap:round;stroke-linejoin:round"></path><rect x="417.73" y="48.7" width="9.96" height="38.85" transform="translate(-4.99 88.12) rotate(-11.83)" style="fill:#fff;stroke:#263238;stroke-linecap:round;stroke-linejoin:round"></rect><rect x="424.85" y="46.12" width="15.94" height="43.34" transform="translate(-4.7 90.19) rotate(-11.83)" style="fill:#4CAF4F;stroke:#263238;stroke-linecap:round;stroke-linejoin:round"></rect><rect x="337.9" y="48.7" width="9.96" height="38.85" transform="translate(664.51 205.11) rotate(-168.17)" style="fill:#fff;stroke:#263238;stroke-linecap:round;stroke-linejoin:round"></rect><rect x="324.81" y="46.12" width="15.94" height="43.34" transform="translate(644.58 202.38) rotate(-168.17)" style="fill:#263238;stroke:#263238;stroke-linecap:round;stroke-linejoin:round"></rect><path d="M329,117.2a3.72,3.72,0,0,1-2.15-.54,2.84,2.84,0,0,1-1.09-1.47,7.06,7.06,0,0,1-.31-2.15v-4.46a7.34,7.34,0,0,1,.31-2.22,2.71,2.71,0,0,1,1.09-1.45,3.89,3.89,0,0,1,2.15-.5,4,4,0,0,1,2,.43,2.53,2.53,0,0,1,1,1.26,5.53,5.53,0,0,1,.3,1.9v1h-2.18V108a7,7,0,0,0-.06-.95,1.15,1.15,0,0,0-.29-.69,1.1,1.1,0,0,0-.83-.25,1.16,1.16,0,0,0-.85.27,1.29,1.29,0,0,0-.35.72,6.5,6.5,0,0,0-.07,1v5.42a4.93,4.93,0,0,0,.1,1.12,1.1,1.1,0,0,0,1.17.89,1,1,0,0,0,.81-.27,1.32,1.32,0,0,0,.3-.72,6.11,6.11,0,0,0,.07-1V112.4h2.18v1a5.9,5.9,0,0,1-.29,2,2.54,2.54,0,0,1-1,1.34A3.67,3.67,0,0,1,329,117.2Z" style="fill:#263238"></path><path d="M337.36,117.2a3.86,3.86,0,0,1-2.15-.51,2.6,2.6,0,0,1-1.07-1.45,7.83,7.83,0,0,1-.29-2.25v-8.45h2.22v8.71a6.39,6.39,0,0,0,.08,1.1,1.54,1.54,0,0,0,.36.84,1.35,1.35,0,0,0,1.72,0,1.71,1.71,0,0,0,.36-.84,6.39,6.39,0,0,0,.08-1.1v-8.71h2.21V113a7.48,7.48,0,0,1-.3,2.25,2.57,2.57,0,0,1-1.05,1.45A3.89,3.89,0,0,1,337.36,117.2Z" style="fill:#263238"></path><path d="M345.81,117.2a3.71,3.71,0,0,1-1.88-.44,2.71,2.71,0,0,1-1.14-1.29,5.44,5.44,0,0,1-.43-2.08l1.95-.39a5.8,5.8,0,0,0,.18,1.28,1.9,1.9,0,0,0,.45.86,1.06,1.06,0,0,0,.79.3.91.91,0,0,0,.79-.33,1.46,1.46,0,0,0,.23-.84,2.23,2.23,0,0,0-.37-1.34,6,6,0,0,0-1-1.05l-1.57-1.39a4.88,4.88,0,0,1-1.06-1.27,3.51,3.51,0,0,1-.39-1.73,3,3,0,0,1,.86-2.28,3.33,3.33,0,0,1,2.36-.8,3.69,3.69,0,0,1,1.47.26,2.31,2.31,0,0,1,.93.75,3.55,3.55,0,0,1,.52,1.09,6.44,6.44,0,0,1,.21,1.29l-1.94.33a6,6,0,0,0-.13-1,1.52,1.52,0,0,0-.36-.73,1,1,0,0,0-.74-.26,1,1,0,0,0-.78.33,1.27,1.27,0,0,0-.27.83,2,2,0,0,0,.26,1,4.37,4.37,0,0,0,.76.84l1.55,1.37a6.42,6.42,0,0,1,1.32,1.52,3.91,3.91,0,0,1,.55,2.1,3.11,3.11,0,0,1-.4,1.59,2.76,2.76,0,0,1-1.09,1.08A3.22,3.22,0,0,1,345.81,117.2Z" style="fill:#263238"></path><path d="M351.53,117V106.22h-2v-1.68h6.22v1.68h-1.95V117Z" style="fill:#263238"></path><path d="M360.23,117.2a3.94,3.94,0,0,1-2.11-.5,2.68,2.68,0,0,1-1.12-1.41,6.3,6.3,0,0,1-.34-2.19v-4.67a6.1,6.1,0,0,1,.34-2.17,2.65,2.65,0,0,1,1.12-1.38,5,5,0,0,1,4.25,0,2.7,2.7,0,0,1,1.12,1.38,6.09,6.09,0,0,1,.35,2.17v4.68a6.13,6.13,0,0,1-.35,2.17,2.83,2.83,0,0,1-1.12,1.42A4,4,0,0,1,360.23,117.2Zm0-1.68a1.24,1.24,0,0,0,.84-.25,1.28,1.28,0,0,0,.37-.68,4.62,4.62,0,0,0,.09-.94V107.9a4.48,4.48,0,0,0-.09-.94,1.27,1.27,0,0,0-.37-.65,1.24,1.24,0,0,0-.84-.24,1.19,1.19,0,0,0-.81.24,1.14,1.14,0,0,0-.37.65,3.87,3.87,0,0,0-.1.94v5.75a4.62,4.62,0,0,0,.09.94,1.21,1.21,0,0,0,.36.68A1.25,1.25,0,0,0,360.23,115.52Z" style="fill:#263238"></path><path d="M365.49,117l.21-12.49h2.36l1.78,8.65,1.84-8.65H374L374.2,117h-1.7l-.18-8.68L370.54,117h-1.37l-1.8-8.71L367.2,117Z" style="fill:#263238"></path><path d="M376,117V104.54h5.24v1.61h-3v3.59h2.33v1.59h-2.33v4.13h3V117Z" style="fill:#263238"></path><path d="M382.55,117V104.54h3a6.58,6.58,0,0,1,2.13.3,2.47,2.47,0,0,1,1.33,1,3.71,3.71,0,0,1,.45,2,6.22,6.22,0,0,1-.13,1.36,2.67,2.67,0,0,1-.47,1,2.18,2.18,0,0,1-.92.66l1.74,6.15h-2.28l-1.51-5.72h-1.05V117Zm2.28-7.15h.71a2.36,2.36,0,0,0,1-.2,1.1,1.1,0,0,0,.57-.61,3.08,3.08,0,0,0,.17-1.09,2.36,2.36,0,0,0-.35-1.41,1.56,1.56,0,0,0-1.32-.47h-.83Z" style="fill:#263238"></path><path d="M394.91,117V104.54h2.28v10.92h3V117Z" style="fill:#263238"></path><path d="M404.63,117.2a3.94,3.94,0,0,1-2.11-.5,2.68,2.68,0,0,1-1.12-1.41,6.3,6.3,0,0,1-.34-2.19v-4.67a6.1,6.1,0,0,1,.34-2.17,2.65,2.65,0,0,1,1.12-1.38,5,5,0,0,1,4.25,0,2.7,2.7,0,0,1,1.12,1.38,5.88,5.88,0,0,1,.35,2.17v4.68a5.91,5.91,0,0,1-.35,2.17,2.83,2.83,0,0,1-1.12,1.42A4,4,0,0,1,404.63,117.2Zm0-1.68a1.24,1.24,0,0,0,.84-.25,1.22,1.22,0,0,0,.37-.68,4.62,4.62,0,0,0,.09-.94V107.9a4.48,4.48,0,0,0-.09-.94,1.2,1.2,0,0,0-.37-.65,1.24,1.24,0,0,0-.84-.24,1.19,1.19,0,0,0-.81.24,1.14,1.14,0,0,0-.37.65,4.48,4.48,0,0,0-.09.94v5.75a4.64,4.64,0,0,0,.08.94,1.21,1.21,0,0,0,.36.68A1.25,1.25,0,0,0,404.63,115.52Z" style="fill:#263238"></path><path d="M411.54,117v-4.77L409,104.54h2.13l1.54,4.95,1.45-4.95h2.08l-2.5,7.72V117Z" style="fill:#263238"></path><path d="M416.19,117l2.5-12.49h2.44L423.62,117h-2.11l-.49-2.88h-2.18l-.51,2.88Zm2.89-4.33h1.69l-.85-5.24Z" style="fill:#263238"></path><path d="M424.81,117V104.54h2.28v10.92h3V117Z" style="fill:#263238"></path><path d="M431.93,117V106.22h-2v-1.68h6.23v1.68h-2V117Z" style="fill:#263238"></path><path d="M439.05,117v-4.77l-2.53-7.72h2.13l1.54,4.95,1.45-4.95h2.08l-2.5,7.72V117Z" style="fill:#263238"></path></g><g id="freepik--Support--inject-32"><path d="M125.38,129.07V118.72l-10.33-1.15a24.23,24.23,0,0,0-2.53-6.15l6.53-8.16L111.73,96l-8.12,6.49a24.85,24.85,0,0,0-6.14-2.57L96.32,89.5H86L84.83,99.82a24.54,24.54,0,0,0-6.16,2.54l-8.16-6.53-7.31,7.32,6.5,8.12a24.87,24.87,0,0,0-2.58,6.14l-10.37,1.15V128.9l10.33,1.15a24.51,24.51,0,0,0,2.53,6.16l-6.53,8.16,7.32,7.31,8.12-6.5a24.47,24.47,0,0,0,6.14,2.57l1.15,10.38H96.16L97.3,147.8a24.51,24.51,0,0,0,6.16-2.53l8.16,6.52,7.31-7.31-6.5-8.12a24.87,24.87,0,0,0,2.58-6.14Zm-34.31,7.09a12.35,12.35,0,1,1,12.34-12.35A12.35,12.35,0,0,1,91.07,136.16Z" style="fill:#263238;stroke:#263238;stroke-linecap:round;stroke-linejoin:round"></path><path d="M166,108.31l-1.15-6.85-7,.38a16.75,16.75,0,0,0-2.36-3.79L159,91.92l-5.65-4-4.66,5.2a16.33,16.33,0,0,0-4.35-1l-1.91-6.74-6.85,1.14.39,7a16.6,16.6,0,0,0-3.8,2.36L126,92.38,122,98l5.2,4.65a16.33,16.33,0,0,0-1,4.35L119.42,109l1.15,6.84,7-.38a16.37,16.37,0,0,0,2.35,3.79l-3.41,6.13,5.65,4,4.66-5.2a16.33,16.33,0,0,0,4.35,1l1.91,6.74,6.85-1.14-.39-7a16.6,16.6,0,0,0,3.8-2.36l6.12,3.42,4-5.66-5.2-4.65a16.74,16.74,0,0,0,1-4.35Zm-21.94,8.49a8.28,8.28,0,1,1,6.81-9.54A8.29,8.29,0,0,1,144.09,116.8Z" style="fill:#4CAF4F;stroke:#263238;stroke-linecap:round;stroke-linejoin:round"></path><path d="M149.79,171.32l-1.15-6.85-7,.38a16.75,16.75,0,0,0-2.36-3.79l3.42-6.12-5.66-4-4.65,5.2a16.93,16.93,0,0,0-4.35-1l-1.92-6.74-6.84,1.15.38,7a17,17,0,0,0-3.8,2.36l-6.12-3.41-4,5.65,5.2,4.66a16.35,16.35,0,0,0-1,4.34L103.19,172l1.14,6.85,7-.39a16.26,16.26,0,0,0,2.36,3.8l-3.42,6.12,5.65,4,4.66-5.2a16.33,16.33,0,0,0,4.35,1l1.91,6.75,6.85-1.15-.38-7a16.37,16.37,0,0,0,3.79-2.35l6.13,3.41,4-5.65-5.2-4.66a16.72,16.72,0,0,0,1-4.35Zm-21.93,8.5a8.29,8.29,0,1,1,6.8-9.54A8.29,8.29,0,0,1,127.86,179.82Z" style="fill:#fff;stroke:#263238;stroke-linecap:round;stroke-linejoin:round"></path><path d="M85.17,220.72a3.61,3.61,0,0,1-1.88-.44A2.8,2.8,0,0,1,82.15,219a5.48,5.48,0,0,1-.43-2.08l2-.39a6.62,6.62,0,0,0,.17,1.28,1.86,1.86,0,0,0,.45.85,1.08,1.08,0,0,0,.79.3.89.89,0,0,0,.79-.33,1.39,1.39,0,0,0,.23-.84,2.26,2.26,0,0,0-.37-1.34,5.54,5.54,0,0,0-1-1L83.18,214a4.8,4.8,0,0,1-1.05-1.27,3.55,3.55,0,0,1-.39-1.74,3,3,0,0,1,.86-2.28,3.34,3.34,0,0,1,2.36-.8,3.49,3.49,0,0,1,1.46.27,2.31,2.31,0,0,1,.93.75,3.38,3.38,0,0,1,.52,1.08,7.55,7.55,0,0,1,.22,1.29l-2,.34a6.27,6.27,0,0,0-.13-1,1.36,1.36,0,0,0-.35-.72,1,1,0,0,0-.75-.26,1,1,0,0,0-.78.33,1.25,1.25,0,0,0-.27.82,1.93,1.93,0,0,0,.26,1,4.37,4.37,0,0,0,.76.84L86.44,214a6.38,6.38,0,0,1,1.31,1.52,3.82,3.82,0,0,1,.55,2.1,3.18,3.18,0,0,1-.39,1.59,2.81,2.81,0,0,1-1.1,1.09A3.29,3.29,0,0,1,85.17,220.72Z" style="fill:#263238"></path><path d="M93.06,220.72a3.86,3.86,0,0,1-2.15-.51,2.6,2.6,0,0,1-1.07-1.45,7.73,7.73,0,0,1-.29-2.25v-8.44h2.22v8.71a7.73,7.73,0,0,0,.07,1.1,1.63,1.63,0,0,0,.37.83,1.32,1.32,0,0,0,1.72,0,1.71,1.71,0,0,0,.36-.83,7.69,7.69,0,0,0,.08-1.1v-8.71h2.21v8.44a7.38,7.38,0,0,1-.3,2.25,2.57,2.57,0,0,1-1,1.45A3.89,3.89,0,0,1,93.06,220.72Z" style="fill:#263238"></path><path d="M98.36,220.55V208.07H102a3.65,3.65,0,0,1,1.83.41,2.5,2.5,0,0,1,1,1.21,5,5,0,0,1,.33,1.92,4.12,4.12,0,0,1-.41,2,2.45,2.45,0,0,1-1.17,1.08,4.16,4.16,0,0,1-1.76.34h-1.24v5.55Zm2.28-7.15h.87a2.1,2.1,0,0,0,1-.18.92.92,0,0,0,.48-.57,3.32,3.32,0,0,0,.13-1.05,4.74,4.74,0,0,0-.1-1.1,1,1,0,0,0-.43-.63,2.12,2.12,0,0,0-1-.2h-.87Z" style="fill:#263238"></path><path d="M106.42,220.55V208.07h3.67a3.65,3.65,0,0,1,1.83.41,2.5,2.5,0,0,1,1,1.21,5,5,0,0,1,.33,1.92,4.12,4.12,0,0,1-.41,2,2.45,2.45,0,0,1-1.17,1.08,4.16,4.16,0,0,1-1.76.34h-1.23v5.55Zm2.29-7.15h.86a2.1,2.1,0,0,0,1-.18.92.92,0,0,0,.48-.57,3.32,3.32,0,0,0,.13-1.05,4.74,4.74,0,0,0-.1-1.1,1,1,0,0,0-.43-.63,2.12,2.12,0,0,0-1-.2h-.86Z" style="fill:#263238"></path><path d="M117.94,220.72a3.9,3.9,0,0,1-2.11-.49,2.72,2.72,0,0,1-1.13-1.42,6.3,6.3,0,0,1-.34-2.19V212a6,6,0,0,1,.34-2.16,2.67,2.67,0,0,1,1.13-1.38,4,4,0,0,1,2.11-.48,4,4,0,0,1,2.13.48,2.71,2.71,0,0,1,1.13,1.38,6,6,0,0,1,.34,2.16v4.69a6.12,6.12,0,0,1-.34,2.16,2.81,2.81,0,0,1-1.13,1.42A4,4,0,0,1,117.94,220.72Zm0-1.68a1.24,1.24,0,0,0,.84-.24,1.28,1.28,0,0,0,.36-.68,4.62,4.62,0,0,0,.09-.94v-5.75a4.48,4.48,0,0,0-.09-.94,1.19,1.19,0,0,0-.36-.66,1.56,1.56,0,0,0-1.66,0,1.2,1.2,0,0,0-.37.66,4.48,4.48,0,0,0-.09.94v5.75a5.49,5.49,0,0,0,.08.94,1,1,0,0,0,1.2.92Z" style="fill:#263238"></path><path d="M123.22,220.55V208.07h3a6.61,6.61,0,0,1,2.14.3,2.43,2.43,0,0,1,1.32,1,3.65,3.65,0,0,1,.46,2,6.15,6.15,0,0,1-.14,1.35,2.57,2.57,0,0,1-.47,1,2.11,2.11,0,0,1-.92.65l1.74,6.15h-2.28l-1.51-5.72h-1v5.72Zm2.28-7.15h.71a2.39,2.39,0,0,0,1.06-.19,1.14,1.14,0,0,0,.56-.62,3,3,0,0,0,.17-1.08,2.29,2.29,0,0,0-.35-1.41,1.52,1.52,0,0,0-1.31-.47h-.84Z" style="fill:#263238"></path><path d="M133.06,220.55v-10.8h-2v-1.68h6.22v1.68h-1.95v10.8Z" style="fill:#263238"></path></g><g id="freepik--Improvement--inject-32"><rect x="63.27" y="313.65" width="10.3" height="30.73" style="fill:#263238;stroke:#263238;stroke-linecap:round;stroke-linejoin:round;stroke-width:0.5px"></rect><rect x="79.46" y="324.7" width="10.3" height="19.68" style="fill:#4CAF4F;stroke:#263238;stroke-linecap:round;stroke-linejoin:round"></rect><rect x="95.65" y="306.92" width="10.3" height="37.46" style="fill:#263238;stroke:#263238;stroke-linecap:round;stroke-linejoin:round;stroke-width:0.5px"></rect><rect x="111.84" y="314.67" width="10.3" height="29.71" style="fill:#4CAF4F;stroke:#263238;stroke-linecap:round;stroke-linejoin:round"></rect><rect x="128.03" y="307.88" width="10.3" height="36.5" style="fill:#263238;stroke:#263238;stroke-linecap:round;stroke-linejoin:round;stroke-width:0.5px"></rect><rect x="144.21" y="286.25" width="10.3" height="58.13" style="fill:#4CAF4F;stroke:#263238;stroke-linecap:round;stroke-linejoin:round"></rect><line x1="166.09" y1="285.63" x2="172.12" y2="285.63" style="fill:none;stroke:#263238;stroke-linecap:round;stroke-linejoin:round;stroke-width:0.5px"></line><line x1="166.09" y1="297.38" x2="172.12" y2="297.38" style="fill:none;stroke:#263238;stroke-linecap:round;stroke-linejoin:round;stroke-width:0.5px"></line><line x1="166.09" y1="309.14" x2="172.12" y2="309.14" style="fill:none;stroke:#263238;stroke-linecap:round;stroke-linejoin:round;stroke-width:0.5px"></line><line x1="166.09" y1="320.89" x2="172.12" y2="320.89" style="fill:none;stroke:#263238;stroke-linecap:round;stroke-linejoin:round;stroke-width:0.5px"></line><line x1="166.09" y1="332.64" x2="172.12" y2="332.64" style="fill:none;stroke:#263238;stroke-linecap:round;stroke-linejoin:round;stroke-width:0.5px"></line><line x1="166.09" y1="344.39" x2="172.12" y2="344.39" style="fill:none;stroke:#263238;stroke-linecap:round;stroke-linejoin:round;stroke-width:0.5px"></line><polyline points="69.16 302.32 84.95 311.86 101.36 294.28 117.57 295.65 133.29 289.41 151.06 266.02" style="fill:none;stroke:#263238;stroke-linecap:round;stroke-linejoin:round"></polyline><path d="M71.15,302.32a2,2,0,1,0-2,2A2,2,0,0,0,71.15,302.32Z" style="fill:#263238"></path><path d="M86.94,311.86a2,2,0,1,0-2,2A2,2,0,0,0,86.94,311.86Z" style="fill:#263238"></path><path d="M103.35,294.28a2,2,0,1,0-2,2A2,2,0,0,0,103.35,294.28Z" style="fill:#263238"></path><path d="M119.56,295.65a2,2,0,1,0-2,2A2,2,0,0,0,119.56,295.65Z" style="fill:#263238"></path><path d="M135.28,289.1a2,2,0,1,0-2,2A2,2,0,0,0,135.28,289.1Z" style="fill:#263238"></path><path d="M153.06,266a2,2,0,1,0-2,2A2,2,0,0,0,153.06,266Z" style="fill:#263238"></path><path d="M67,374.51V362h2.25v12.48Z" style="fill:#263238"></path><path d="M71.17,374.51,71.39,362h2.35l1.78,8.64L77.37,362h2.28l.23,12.48h-1.7L78,365.83l-1.77,8.68H74.85l-1.8-8.71-.17,8.71Z" style="fill:#263238"></path><path d="M81.63,374.51V362H85.3a3.65,3.65,0,0,1,1.83.41,2.5,2.5,0,0,1,1,1.21,5,5,0,0,1,.33,1.92,4.15,4.15,0,0,1-.41,2,2.45,2.45,0,0,1-1.17,1.08,4.16,4.16,0,0,1-1.76.34H83.91v5.55Zm2.28-7.15h.87a2.1,2.1,0,0,0,1-.18.92.92,0,0,0,.48-.57,3.32,3.32,0,0,0,.13-1.05,4.74,4.74,0,0,0-.1-1.1.94.94,0,0,0-.43-.63,2.12,2.12,0,0,0-1-.2h-.87Z" style="fill:#263238"></path><path d="M89.7,374.51V362h3a6.61,6.61,0,0,1,2.14.3,2.43,2.43,0,0,1,1.32,1,3.65,3.65,0,0,1,.46,2,6.15,6.15,0,0,1-.14,1.35,2.63,2.63,0,0,1-.47,1,2.11,2.11,0,0,1-.92.65l1.75,6.15H94.53L93,368.79H92v5.72ZM92,367.36h.7a2.39,2.39,0,0,0,1.06-.19,1.14,1.14,0,0,0,.56-.62,2.8,2.8,0,0,0,.17-1.09,2.41,2.41,0,0,0-.34-1.41,1.57,1.57,0,0,0-1.32-.47H92Z" style="fill:#263238"></path><path d="M101.67,374.68a3.92,3.92,0,0,1-2.11-.49,2.72,2.72,0,0,1-1.13-1.42,6.54,6.54,0,0,1-.34-2.19v-4.67a6.28,6.28,0,0,1,.34-2.16,2.67,2.67,0,0,1,1.13-1.38,4.92,4.92,0,0,1,4.24,0,2.71,2.71,0,0,1,1.13,1.38,6,6,0,0,1,.35,2.16v4.69a6.11,6.11,0,0,1-.35,2.16,2.81,2.81,0,0,1-1.13,1.42A3.92,3.92,0,0,1,101.67,374.68Zm0-1.68a1.19,1.19,0,0,0,.84-.25,1.21,1.21,0,0,0,.36-.67,4.62,4.62,0,0,0,.09-.94v-5.75a4.48,4.48,0,0,0-.09-.94,1.19,1.19,0,0,0-.36-.66,1.56,1.56,0,0,0-1.66,0,1.2,1.2,0,0,0-.37.66,4.48,4.48,0,0,0-.09.94v5.75a4.62,4.62,0,0,0,.09.94,1.1,1.1,0,0,0,.36.67A1.18,1.18,0,0,0,101.67,373Z" style="fill:#263238"></path><path d="M108.81,374.51,106.29,362h2l1.65,8.83L111.5,362h2.07l-2.51,12.48Z" style="fill:#263238"></path><path d="M114.85,374.51V362h5.24v1.6h-3v3.59h2.32v1.59h-2.32v4.13h3v1.57Z" style="fill:#263238"></path><path d="M121.41,374.51l.22-12.48H124l1.77,8.64,1.85-8.64h2.28l.23,12.48h-1.7l-.18-8.68-1.77,8.68H125.1l-1.81-8.71-.17,8.71Z" style="fill:#263238"></path><path d="M131.88,374.51V362h5.24v1.6h-3v3.59h2.32v1.59h-2.32v4.13h3v1.57Z" style="fill:#263238"></path><path d="M138.47,374.51V362h1.59l3,7.12V362H145v12.48h-1.51l-3.06-7.46v7.46Z" style="fill:#263238"></path><path d="M148.12,374.51v-10.8h-2V362h6.23v1.68h-2v10.8Z" style="fill:#263238"></path></g><g id="freepik--Device--inject-32"><polygon points="427.32 438.3 338.28 438.3 351.63 389.15 413.96 389.15 427.32 438.3" style="fill:#263238;stroke:#263238;stroke-linecap:round;stroke-linejoin:round"></polygon><rect x="315.13" y="438.3" width="135.34" height="4.99" style="fill:#263238;stroke:#263238;stroke-linecap:round;stroke-linejoin:round"></rect><rect x="190.32" y="149.94" width="384.95" height="244.37" style="fill:#263238;stroke:#263238;stroke-linecap:round;stroke-linejoin:round"></rect><rect x="202.66" y="159.26" width="360.28" height="225.74" style="fill:#b2b2b2;stroke:#263238;stroke-linecap:round;stroke-linejoin:round"></rect></g><g id="freepik--Characters--inject-32"><path d="M311.51,216.22l-23.34,3.9,7.36,107.65,33.83,2.73s7.35-41.39,7.77-48.11-12-57.14-12-57.14Z" style="fill:#4CAF4F;stroke:#263238;stroke-linecap:round;stroke-linejoin:round"></path><path d="M346,385a28.68,28.68,0,0,0,1.13-8.16c-.27-4-1.33-10.11-1.33-10.11l-9.58.8L339.93,385Z" style="fill:#fff;stroke:#263238;stroke-linecap:round;stroke-linejoin:round"></path><path d="M243.28,385h96.88c-.26-2.13-1-7.5-1.77-12.89-1.05-6.93-8.19-55.47-8.19-55.47L259,309.91s-16.6,32.15-18.91,41.6S243,383.23,243,383.23Z" style="fill:#263238;stroke:#263238;stroke-linecap:round;stroke-linejoin:round"></path><path d="M337.13,143.1s5.46-1.26,7.77,7.35-.42,13,.63,17.23,3.31,14.07.57,23.94-12.54,17-13,20.6l-.42,3.57s-1.47,1.47-6.09,1.05-10.3-3.78-10.3-3.78l.63-7.14s8,0,9.88-1.47,10.08-16,10.71-20.17,1.05-16.18.42-19.75-5-10.93-6.72-11.56-9.46-6.09-9.46-6.09S332.51,140.37,337.13,143.1Z" style="fill:#263238;stroke:#263238;stroke-linecap:round;stroke-linejoin:round"></path><path d="M342.38,233.44s6.73,3.15,6.94,8.4-3.58,28.57-3.58,30.26-1.89,36.55-1.89,36.55l4.07,60.73-9.57.54S330,325,330.83,319.58s5.88-32.36,6.3-37.19-.63-25.42.84-31.51S342.38,233.44,342.38,233.44Z" style="fill:#fff;stroke:#263238;stroke-linecap:round;stroke-linejoin:round"></path><path d="M328,147.68s10.38,4.24,12.06,11.6-.84,16.59,0,22.48-7.56,20.59-10.5,24.16-10.09,2.31-10.09,2.31L320.55,220s4.4,14.7,3.76,18.48-7.57,9.33-16.38,8.82c-10.93-.63-14.3-10.8-14.3-10.8l1.47-23.32a68.92,68.92,0,0,0-.41-14.41c-1.05-8.61,1.26-21.64,2.1-23.74s8.62-10.71,13.45-14.07,14.28-13,14.28-13S327.3,146.79,328,147.68Z" style="fill:#fff;stroke:#263238;stroke-linecap:round;stroke-linejoin:round"></path><path d="M294.68,217.59s-32.34,3-37,6.18,2.1,70.59,2.1,70.59-26,57.15-25.21,57.57,13.23,10.71,26.47,13,32.56,4,32.56,4,6.93-56.73,7.77-61.14-1.89-48.11-1.47-54.2S294.68,217.59,294.68,217.59Z" style="fill:#fff;stroke:#263238;stroke-linecap:round;stroke-linejoin:round"></path><path d="M295.61,285.94a57.5,57.5,0,0,0,3.28,6.53" style="fill:none;stroke:#263238;stroke-linecap:round;stroke-linejoin:round"></path><path d="M287.32,231.59c1.39,12.59,3.53,32.15,4.22,39.45A48.82,48.82,0,0,0,294.79,284" style="fill:none;stroke:#263238;stroke-linecap:round;stroke-linejoin:round"></path><path d="M286.07,220.33s.33,3,.83,7.51" style="fill:none;stroke:#263238;stroke-linecap:round;stroke-linejoin:round"></path><path d="M328,147.68A88.17,88.17,0,0,1,321,157.91c-3.66,4.39-17.54,13.4-17.54,13.4s.24,4.88-.74,6.34-4.14.49-4.14.49-2.19,11.93-1.46,20.71,5.12,11.2,3.9,13.4-8.91,8-19.38,3.89-15.84-8.29-18.52-14.87,6.71-41.65,13.53-52.86,23.15-18.52,33.14-17.3,27.78,6.58,29.24,10.72S328,147.68,328,147.68Z" style="fill:#263238;stroke:#263238;stroke-linecap:round;stroke-linejoin:round"></path><path d="M296.79,175s-9.4,10.46-11.33,21.75,3.87,16.13,6.13,17.1" style="fill:none;stroke:#5c5c5c;stroke-linecap:round;stroke-linejoin:round"></path><path d="M269.05,195.21a15.4,15.4,0,0,0,.6,6.41" style="fill:none;stroke:#5c5c5c;stroke-linecap:round;stroke-linejoin:round"></path><path d="M313,154.28a61.15,61.15,0,0,1-7.55,5.73c-12.77,8.34-29.83,18.37-35,30.08" style="fill:none;stroke:#5c5c5c;stroke-linecap:round;stroke-linejoin:round"></path><path d="M320,141.94s1.08,3.38-3.76,9.07" style="fill:none;stroke:#5c5c5c;stroke-linecap:round;stroke-linejoin:round"></path><path d="M320.55,220s17.84,10.71,21.83,13.44-2.73,28.36-2.1,33.4,2.52,17,.63,22.06-2.94,8.2-2.94,8.2l-3.57,23.11s5.88,44.33,5.67,45-20.8,3.36-20.8,3.36,3.78-45,5.89-54.42,9-23.32,7.35-38.86S320.55,220,320.55,220Z" style="fill:#fff;stroke:#263238;stroke-linecap:round;stroke-linejoin:round"></path><path d="M336.74,275.27a40,40,0,0,1-3.6,14.63" style="fill:none;stroke:#263238;stroke-linecap:round;stroke-linejoin:round"></path><path d="M331,228.6s5.56,30.06,5.84,41.92" style="fill:none;stroke:#263238;stroke-linecap:round;stroke-linejoin:round"></path><path d="M339,261.8s-1.28-10.49-3-16" style="fill:none;stroke:#263238;stroke-linecap:round;stroke-linejoin:round"></path><path d="M323,176.69c0,1.66-.8,3-1.8,3s-1.8-1.35-1.8-3,.8-3,1.8-3S323,175,323,176.69Z" style="fill:#263238"></path><path d="M338.29,176.69c0,1.66-.8,3-1.8,3s-1.81-1.35-1.81-3,.81-3,1.81-3S338.29,175,338.29,176.69Z" style="fill:#263238"></path><path d="M315.74,171a12.2,12.2,0,0,1,10.22-1.5" style="fill:none;stroke:#263238;stroke-linecap:round;stroke-linejoin:round"></path><path d="M338.59,171a3.25,3.25,0,0,0-4.21-.6s-2.7,3.61-2.1,6" style="fill:none;stroke:#263238;stroke-linecap:round;stroke-linejoin:round"></path><line x1="332.58" y1="190.83" x2="326.86" y2="191.73" style="fill:none;stroke:#263238;stroke-linecap:round;stroke-linejoin:round"></line><path d="M329,195.64s-8.42,2.4-13.53-3.91" style="fill:none;stroke:#263238;stroke-linecap:round;stroke-linejoin:round"></path><polygon points="319.48 208.23 311.22 205.56 318.44 214.29 319.48 208.23" style="fill:#263238;stroke:#263238;stroke-linecap:round;stroke-linejoin:round"></polygon><path d="M468.86,219.76a32,32,0,0,0-4.26,9.93c-1.18,5.43-2.36,11.58-2.36,11.58s5.91-4.73,6.62-5-.47-6.14-.47-6.14l4-3.31Z" style="fill:#263238;stroke:#263238;stroke-linecap:round;stroke-linejoin:round"></path><path d="M471.22,140.11s-5.91,2.13-8.27,6.38-8.51,14.18-7.56,17.49,1.41,4.73,1.41,4.73-8.5,14.89-7.56,16.31a34.33,34.33,0,0,0,3.78,4s3.78,17.72,5.44,18.9,6.38,1.89,6.38,1.89l6.85,8.51L509.27,203l.48-8.27s12.76-16.55,14.41-26-10.4-25.76-23.4-32.14S474.06,133.73,471.22,140.11Z" style="fill:#fff;stroke:#263238;stroke-linecap:round;stroke-linejoin:round"></path><path d="M459,173.8a10.11,10.11,0,0,0,5.72,2.29" style="fill:none;stroke:#263238;stroke-linecap:round;stroke-linejoin:round"></path><path d="M500.76,136.57c-13-6.38-26.7-2.84-29.54,3.54,0,0,1.18.95,5,.71s12.77-4,15.13-.71-7.09,6.15-10.63,11.11-2.6,5.2.23,9,3.31,5.44,2.84,7.09-1.18,3.07,1.89,3.55,4-7.09,8.74-4.73,5.44,9.45,3.78,14.18a10.26,10.26,0,0,1-5.19,6.15s.7,3.07,5.9,5.67a27.37,27.37,0,0,0,10.88,2.6s12.76-16.55,14.41-26S513.76,143,500.76,136.57Z" style="fill:#263238;stroke:#263238;stroke-linecap:round;stroke-linejoin:round"></path><path d="M509.75,178.91a13.54,13.54,0,0,1,.88,6.2" style="fill:none;stroke:#5c5c5c;stroke-linecap:round;stroke-linejoin:round"></path><path d="M482.87,154.35s1.67,3.34,11,7.35c5.26,2.26,10.21,7.06,13.36,12.13" style="fill:none;stroke:#5c5c5c;stroke-linecap:round;stroke-linejoin:round"></path><path d="M508.62,164.38s8.36,5,7,14.71" style="fill:none;stroke:#5c5c5c;stroke-linecap:round;stroke-linejoin:round"></path><path d="M463,169.3c0,1.63-.69,3-1.54,3s-1.53-1.33-1.53-3,.68-3,1.53-3S463,167.67,463,169.3Z" style="fill:#263238"></path><path d="M458,162.8s4.25-5,8,.24" style="fill:none;stroke:#263238;stroke-linecap:round;stroke-linejoin:round"></path><path d="M456.33,189.74s5.67-.47,9.22-4" style="fill:none;stroke:#263238;stroke-linecap:round;stroke-linejoin:round"></path><path d="M493,186.44l-2.6.7a23.74,23.74,0,0,1-5.68,9.22" style="fill:#fff;stroke:#263238;stroke-linecap:round;stroke-linejoin:round"></path><path d="M510,199.43s-36.87,15.37-38.52,17.26-2.6,3.07-2.6,3.07l2.83,15.13,43-28.37Z" style="fill:#fff;stroke:#263238;stroke-linecap:round;stroke-linejoin:round"></path><path d="M402.77,303.58l2.05,15.05-9.58,2.28A71.34,71.34,0,0,1,387,325.7c-3.87,1.82-6.61,2.5-8,2.5s-6.38-2.05-6.38-2.05,3.42-18.47,7.3-20.52S394.1,300.61,402.77,303.58Z" style="fill:#fff;stroke:#263238;stroke-linecap:round;stroke-linejoin:round"></path><path d="M354.54,309.89s18-2.67,20-2.95,7.24,4.09,7.24,4.09,10.17,12.6,9.59,13.52c-1.46,2.31-3.05,1-3.05,1l-.12,1.5s-1.11,1.86-8.07,1.88-9.45-1.69-11.16-1.83-15.19-3.58-15.19-3.58Z" style="fill:#fff;stroke:#263238;stroke-linecap:round;stroke-linejoin:round"></path><polygon points="348.5 308.55 355.11 309.74 354.38 324.64 348.37 324.25 348.5 308.55" style="fill:#fff;stroke:#263238;stroke-linecap:round;stroke-linejoin:round"></polygon><path d="M275.21,222.83s-18.8-1.31-22.74,1.75-2,43.51,1.32,58.16,7.87,38.05,10,39.14,85.58,4.47,85.58,4.47l.88-18.15-64.37-13.87-4.59-57.28" style="fill:#fff;stroke:#263238;stroke-linecap:round;stroke-linejoin:round"></path><line x1="388.37" y1="325.55" x2="385.47" y2="321.47" style="fill:none;stroke:#263238;stroke-linecap:round;stroke-linejoin:round"></line><line x1="386.37" y1="327.91" x2="382.86" y2="323.44" style="fill:none;stroke:#263238;stroke-linecap:round;stroke-linejoin:round"></line><path d="M398,305s-17.1-5.25-20.52-1.6-10.72,13.23-9.12,14.37,7.29-3.2,8.66-4.11a16.21,16.21,0,0,0,2.74-2.51,12.68,12.68,0,0,0,12.31,3.2" style="fill:#fff;stroke:#263238;stroke-linecap:round;stroke-linejoin:round"></path><path d="M379.17,323s-1.62,5.87-1,6.86a2.22,2.22,0,0,0,2.5,1,4.77,4.77,0,0,0,1.49-1s.25-5-.5-6.23S380.29,321.54,379.17,323Z" style="fill:#fff;stroke:#263238;stroke-linecap:round;stroke-linejoin:round"></path><path d="M374.8,323.78s-1.62,5.86-1,6.86a2.2,2.2,0,0,0,2.49,1,4.73,4.73,0,0,0,1.5-1s.25-5-.5-6.23S375.93,322.29,374.8,323.78Z" style="fill:#fff;stroke:#263238;stroke-linecap:round;stroke-linejoin:round"></path><path d="M370.41,324s-1.24,4.5-.76,5.26a1.69,1.69,0,0,0,1.91.77,3.52,3.52,0,0,0,1.15-.77s.19-3.82-.38-4.78S371.27,322.85,370.41,324Z" style="fill:#fff;stroke:#263238;stroke-linecap:round;stroke-linejoin:round"></path><path d="M365.24,324.18s-1,3-.6,3.49a1.45,1.45,0,0,0,1.5.5,3,3,0,0,0,.91-.5s.15-2.54-.3-3.17S365.92,323.42,365.24,324.18Z" style="fill:#fff;stroke:#263238;stroke-linecap:round;stroke-linejoin:round"></path><polygon points="401.4 301.98 403.68 323.19 411.2 321.82 408.47 300.61 401.4 301.98" style="fill:#fff;stroke:#263238;stroke-linecap:round;stroke-linejoin:round"></polygon><polygon points="406.19 299.25 410.75 326.15 441.98 322.05 445.4 291.49 406.19 299.25" style="fill:#4CAF4F;stroke:#263238;stroke-linecap:round;stroke-linejoin:round"></polygon><polygon points="430.71 323.53 441.98 322.05 445.4 291.49 437.17 293.12 430.71 323.53" style="fill:#263238;stroke:#263238;stroke-linecap:round;stroke-linejoin:round"></polygon><path d="M525,385l-2.55-49s10.72-47,8.44-73-19.84-53.12-19.84-53.12-41.27,25.76-45.6,30.32S453.38,252.5,451.1,259.8,439.93,312,439.93,312s-9.35,31.47-12.31,50.4c-1.8,11.51-1.58,18.7-1.13,22.58Z" style="fill:#4CAF4F;stroke:#263238;stroke-linecap:round;stroke-linejoin:round"></path><path d="M509.5,218.45a84.79,84.79,0,0,0,8.28-3.89" style="fill:none;stroke:#263238;stroke-linecap:round;stroke-linejoin:round"></path><path d="M453.38,270.21c3.56-6.44,8-14.09,10-16.42,3.78-4.25,32.14-29.3,42.54-33.79" style="fill:none;stroke:#263238;stroke-linecap:round;stroke-linejoin:round"></path><path d="M448.06,280s1.69-3.2,4-7.4" style="fill:none;stroke:#263238;stroke-linecap:round;stroke-linejoin:round"></path><path d="M474.28,282.46c0,14.66-2,29.17-1,43.68-5.18,18.66-14.51,35.24-21.22,52.75" style="fill:none;stroke:#263238;stroke-linecap:round;stroke-linejoin:round"></path><path d="M478.08,252.38s-4.26,6.38-3.79,18.19c.06,1.45.08,3.43.07,5.78" style="fill:none;stroke:#263238;stroke-linecap:round;stroke-linejoin:round"></path><path d="M519.2,259s-9.45,72.8-10.4,78.71c-.68,4.23-15.17,27.37-23.35,40.16" style="fill:none;stroke:#263238;stroke-linecap:round;stroke-linejoin:round"></path><polyline points="456.74 364.34 437.41 360.98 438.67 355.09 457.58 358.46" style="fill:none;stroke:#263238;stroke-linecap:round;stroke-linejoin:round"></polyline></g></svg>
