<svg fill="#ffffff" viewBox="0 0 32 32" version="1.1" xmlns="http://www.w3.org/2000/svg" stroke="#ffffff"><g id="SVGRepo_bgCarrier" stroke-width="0"></g><g id="SVGRepo_tracerCarrier" stroke-linecap="round" stroke-linejoin="round"></g><g id="SVGRepo_iconCarrier"> <title>dribble</title> <path d="M25.916 7.921c-1.881 2.234-4.289 3.965-7.035 5.009l-0.118 0.039c0.3 0.612 0.587 1.231 0.85 1.857 0.1 0.225 0.187 0.45 0.275 0.662 0.927-0.102 2.003-0.16 3.092-0.16 2.063 0 4.077 0.208 6.023 0.605l-0.193-0.033c-0.020-3.040-1.107-5.821-2.904-7.994l0.017 0.021zM13.001 3.569c1.595 2.15 3.176 4.6 4.598 7.151l0.178 0.347c2.712-0.908 4.989-2.511 6.694-4.6l0.021-0.026c-2.247-2.006-5.228-3.232-8.494-3.232-1.063 0-2.096 0.13-3.084 0.375l0.088-0.018zM3.46 13.395c4.219-0.022 8.295-0.59 12.176-1.636l-0.333 0.076c-1.652-2.899-3.222-5.318-4.912-7.644l0.163 0.236c-3.596 1.721-6.227 4.966-7.077 8.875l-0.015 0.085zM6.484 24.585c2.42-3.882 6.010-6.839 10.271-8.408l0.141-0.045c0.169-0.056 0.337-0.105 0.506-0.15-0.325-0.731-0.675-1.458-1.040-2.174-3.888 1.154-8.355 1.819-12.977 1.819-0.066 0-0.131-0-0.196-0l0.010 0-0.005 0.39c0 0.003 0 0.006 0 0.009 0 3.297 1.25 6.302 3.301 8.568l-0.010-0.011zM21.005 27.809c-0.682-3.699-1.63-6.957-2.863-10.070l0.126 0.361-0.082 0.025c-4.314 1.346-7.826 4.192-10.002 7.915l-0.045 0.083c2.145 1.688 4.885 2.707 7.863 2.707 1.805 0 3.522-0.374 5.078-1.049l-0.083 0.032zM28.646 18.052c-1.571-0.474-3.376-0.747-5.245-0.747-0.964 0-1.911 0.073-2.836 0.213l0.104-0.013c0.98 2.564 1.842 5.629 2.436 8.789l0.054 0.344c2.874-1.96 4.893-4.993 5.482-8.51l0.010-0.075zM16 30.996c0 0 0 0-0 0-8.282 0-14.996-6.714-14.996-14.996s6.714-14.996 14.996-14.996c8.282 0 14.996 6.714 14.996 14.996 0 0 0 0 0 0v0c-0.011 8.277-6.718 14.984-14.995 14.996h-0.001z"></path> </g></svg>